%TF.GenerationSoftware,KiCad,Pcbnew,9.0.3*%
%TF.CreationDate,2025-08-09T18:19:05-04:00*%
%TF.ProjectId,PCIe-Aux-Signal-Breakout,50434965-2d41-4757-982d-5369676e616c,rev?*%
%TF.SameCoordinates,Original*%
%TF.FileFunction,Profile,NP*%
%FSLAX46Y46*%
G04 Gerber Fmt 4.6, Leading zero omitted, Abs format (unit mm)*
G04 Created by KiCad (PCBNEW 9.0.3) date 2025-08-09 18:19:05*
%MOMM*%
%LPD*%
G01*
G04 APERTURE LIST*
%TA.AperFunction,Profile*%
%ADD10C,0.100000*%
%TD*%
%TA.AperFunction,Profile*%
%ADD11C,0.120000*%
%TD*%
G04 APERTURE END LIST*
D10*
X46240000Y-136120000D02*
X61240000Y-136120000D01*
X55340000Y-131270000D02*
G75*
G02*
X52140000Y-131270000I-1600000J0D01*
G01*
X52140000Y-131270000D02*
G75*
G02*
X55340000Y-131270000I1600000J0D01*
G01*
X55340000Y-77370000D02*
G75*
G02*
X52140000Y-77370000I-1600000J0D01*
G01*
X52140000Y-77370000D02*
G75*
G02*
X55340000Y-77370000I1600000J0D01*
G01*
X111540000Y-109535000D02*
X73725000Y-71720000D01*
X111540000Y-127870000D02*
X111540000Y-109535000D01*
X61240000Y-127870000D02*
X79590000Y-127870000D01*
X46240000Y-71720000D02*
X46240000Y-136120000D01*
X73725000Y-71720000D02*
X46240000Y-71720000D01*
X61240000Y-136120000D02*
X61240000Y-127870000D01*
D11*
%TO.C,J1*%
X79590000Y-136120000D02*
X79590000Y-127870000D01*
X79590000Y-136120000D02*
X87590000Y-136120000D01*
X87590000Y-136120000D02*
X87590000Y-129695000D01*
X91240000Y-140120000D02*
X91240000Y-129695000D01*
X91240000Y-140120000D02*
X91740000Y-140620000D01*
X91740000Y-140620000D02*
X101940000Y-140620000D01*
X102440000Y-133170000D02*
X102440000Y-140120000D01*
X102440000Y-140120000D02*
X101940000Y-140620000D01*
X104340000Y-133170000D02*
X104340000Y-140120000D01*
X104340000Y-140120000D02*
X104840000Y-140620000D01*
X104840000Y-140620000D02*
X111040000Y-140620000D01*
X111540000Y-140120000D02*
X111040000Y-140620000D01*
X111540000Y-140120000D02*
X111540000Y-127870000D01*
X87590000Y-129695000D02*
G75*
G02*
X91240000Y-129695000I1825000J0D01*
G01*
X102440000Y-133170000D02*
G75*
G02*
X104340000Y-133170000I950000J0D01*
G01*
%TD*%
M02*
