%TF.GenerationSoftware,KiCad,Pcbnew,9.0.3*%
%TF.CreationDate,2025-08-09T15:12:17-04:00*%
%TF.ProjectId,PCIe-Aux-Signal-Breakout,50434965-2d41-4757-982d-5369676e616c,rev?*%
%TF.SameCoordinates,Original*%
%TF.FileFunction,Legend,Top*%
%TF.FilePolarity,Positive*%
%FSLAX46Y46*%
G04 Gerber Fmt 4.6, Leading zero omitted, Abs format (unit mm)*
G04 Created by KiCad (PCBNEW 9.0.3) date 2025-08-09 15:12:17*
%MOMM*%
%LPD*%
G01*
G04 APERTURE LIST*
%ADD10C,0.300000*%
%ADD11C,0.150000*%
%ADD12C,0.000000*%
%ADD13C,0.120000*%
%ADD14C,0.100000*%
G04 APERTURE END LIST*
D10*
X76305397Y-78080328D02*
X76440084Y-78349703D01*
X76440084Y-78349703D02*
X76776801Y-78686420D01*
X76776801Y-78686420D02*
X76978832Y-78753764D01*
X76978832Y-78753764D02*
X77113519Y-78753764D01*
X77113519Y-78753764D02*
X77315550Y-78686420D01*
X77315550Y-78686420D02*
X77450237Y-78551733D01*
X77450237Y-78551733D02*
X77517580Y-78349703D01*
X77517580Y-78349703D02*
X77517580Y-78215015D01*
X77517580Y-78215015D02*
X77450237Y-78012985D01*
X77450237Y-78012985D02*
X77248206Y-77676267D01*
X77248206Y-77676267D02*
X77180863Y-77474237D01*
X77180863Y-77474237D02*
X77180863Y-77339550D01*
X77180863Y-77339550D02*
X77248206Y-77137519D01*
X77248206Y-77137519D02*
X77382893Y-77002832D01*
X77382893Y-77002832D02*
X77584924Y-76935489D01*
X77584924Y-76935489D02*
X77719611Y-76935489D01*
X77719611Y-76935489D02*
X77921641Y-77002832D01*
X77921641Y-77002832D02*
X78258359Y-77339550D01*
X78258359Y-77339550D02*
X78393046Y-77608924D01*
X79201168Y-79225168D02*
X78258359Y-80167977D01*
X78595076Y-78619077D02*
X77854298Y-79359855D01*
X77854298Y-79359855D02*
X77786954Y-79561886D01*
X77786954Y-79561886D02*
X77854298Y-79763916D01*
X77854298Y-79763916D02*
X78056328Y-79965947D01*
X78056328Y-79965947D02*
X78258359Y-80033290D01*
X78258359Y-80033290D02*
X78393046Y-80033290D01*
X79874603Y-79898603D02*
X78460389Y-81312817D01*
X79807259Y-79965947D02*
X80009290Y-80033290D01*
X80009290Y-80033290D02*
X80278664Y-80302664D01*
X80278664Y-80302664D02*
X80346007Y-80504695D01*
X80346007Y-80504695D02*
X80346007Y-80639382D01*
X80346007Y-80639382D02*
X80278664Y-80841412D01*
X80278664Y-80841412D02*
X79874603Y-81245473D01*
X79874603Y-81245473D02*
X79672572Y-81312817D01*
X79672572Y-81312817D02*
X79537885Y-81312817D01*
X79537885Y-81312817D02*
X79335855Y-81245473D01*
X79335855Y-81245473D02*
X79066481Y-80976099D01*
X79066481Y-80976099D02*
X78999137Y-80774069D01*
X80817412Y-82592344D02*
X80615381Y-82525000D01*
X80615381Y-82525000D02*
X80346007Y-82255626D01*
X80346007Y-82255626D02*
X80278664Y-82053596D01*
X80278664Y-82053596D02*
X80346007Y-81851565D01*
X80346007Y-81851565D02*
X80884756Y-81312817D01*
X80884756Y-81312817D02*
X81086786Y-81245473D01*
X81086786Y-81245473D02*
X81288817Y-81312817D01*
X81288817Y-81312817D02*
X81558191Y-81582191D01*
X81558191Y-81582191D02*
X81625534Y-81784221D01*
X81625534Y-81784221D02*
X81558191Y-81986252D01*
X81558191Y-81986252D02*
X81423504Y-82120939D01*
X81423504Y-82120939D02*
X80615381Y-81582191D01*
X81423504Y-83333122D02*
X82366313Y-82390313D01*
X82096939Y-82659687D02*
X82298969Y-82592344D01*
X82298969Y-82592344D02*
X82433656Y-82592344D01*
X82433656Y-82592344D02*
X82635687Y-82659687D01*
X82635687Y-82659687D02*
X82770374Y-82794374D01*
X83241778Y-84882023D02*
X83107091Y-84882023D01*
X83107091Y-84882023D02*
X82837717Y-84747336D01*
X82837717Y-84747336D02*
X82703030Y-84612649D01*
X82703030Y-84612649D02*
X82568343Y-84343275D01*
X82568343Y-84343275D02*
X82568343Y-84073901D01*
X82568343Y-84073901D02*
X82635687Y-83871870D01*
X82635687Y-83871870D02*
X82837717Y-83535153D01*
X82837717Y-83535153D02*
X83039748Y-83333122D01*
X83039748Y-83333122D02*
X83376465Y-83131092D01*
X83376465Y-83131092D02*
X83578496Y-83063748D01*
X83578496Y-83063748D02*
X83847870Y-83063748D01*
X83847870Y-83063748D02*
X84117244Y-83198435D01*
X84117244Y-83198435D02*
X84251931Y-83333122D01*
X84251931Y-83333122D02*
X84386618Y-83602496D01*
X84386618Y-83602496D02*
X84386618Y-83737183D01*
X83915213Y-85824832D02*
X83847870Y-85622801D01*
X83847870Y-85622801D02*
X83847870Y-85488114D01*
X83847870Y-85488114D02*
X83915213Y-85286084D01*
X83915213Y-85286084D02*
X84319274Y-84882023D01*
X84319274Y-84882023D02*
X84521305Y-84814679D01*
X84521305Y-84814679D02*
X84655992Y-84814679D01*
X84655992Y-84814679D02*
X84858022Y-84882023D01*
X84858022Y-84882023D02*
X85060053Y-85084053D01*
X85060053Y-85084053D02*
X85127396Y-85286084D01*
X85127396Y-85286084D02*
X85127396Y-85420771D01*
X85127396Y-85420771D02*
X85060053Y-85622801D01*
X85060053Y-85622801D02*
X84655992Y-86026862D01*
X84655992Y-86026862D02*
X84453961Y-86094206D01*
X84453961Y-86094206D02*
X84319274Y-86094206D01*
X84319274Y-86094206D02*
X84117244Y-86026862D01*
X84117244Y-86026862D02*
X83915213Y-85824832D01*
X85194740Y-87104358D02*
X85127396Y-86902328D01*
X85127396Y-86902328D02*
X85127396Y-86767641D01*
X85127396Y-86767641D02*
X85194740Y-86565610D01*
X85194740Y-86565610D02*
X85598801Y-86161549D01*
X85598801Y-86161549D02*
X85800831Y-86094206D01*
X85800831Y-86094206D02*
X85935518Y-86094206D01*
X85935518Y-86094206D02*
X86137549Y-86161549D01*
X86137549Y-86161549D02*
X86339579Y-86363580D01*
X86339579Y-86363580D02*
X86406923Y-86565610D01*
X86406923Y-86565610D02*
X86406923Y-86700297D01*
X86406923Y-86700297D02*
X86339579Y-86902328D01*
X86339579Y-86902328D02*
X85935518Y-87306389D01*
X85935518Y-87306389D02*
X85733488Y-87373732D01*
X85733488Y-87373732D02*
X85598801Y-87373732D01*
X85598801Y-87373732D02*
X85396770Y-87306389D01*
X85396770Y-87306389D02*
X85194740Y-87104358D01*
X86272236Y-88181855D02*
X87686450Y-86767641D01*
X86945671Y-87777794D02*
X86810984Y-88720603D01*
X87753793Y-87777794D02*
X86676297Y-87777794D01*
X87417076Y-89326694D02*
X88359885Y-88383885D01*
X88831289Y-87912481D02*
X88696602Y-87912481D01*
X88696602Y-87912481D02*
X88696602Y-88047168D01*
X88696602Y-88047168D02*
X88831289Y-88047168D01*
X88831289Y-88047168D02*
X88831289Y-87912481D01*
X88831289Y-87912481D02*
X88696602Y-88047168D01*
X88696602Y-90471534D02*
X88494572Y-90404190D01*
X88494572Y-90404190D02*
X88225198Y-90134816D01*
X88225198Y-90134816D02*
X88157854Y-89932786D01*
X88157854Y-89932786D02*
X88225198Y-89730755D01*
X88225198Y-89730755D02*
X88763946Y-89192007D01*
X88763946Y-89192007D02*
X88965976Y-89124664D01*
X88965976Y-89124664D02*
X89168007Y-89192007D01*
X89168007Y-89192007D02*
X89437381Y-89461381D01*
X89437381Y-89461381D02*
X89504724Y-89663412D01*
X89504724Y-89663412D02*
X89437381Y-89865442D01*
X89437381Y-89865442D02*
X89302694Y-90000129D01*
X89302694Y-90000129D02*
X88494572Y-89461381D01*
X90380191Y-92289809D02*
X91794404Y-90875596D01*
X91794404Y-90875596D02*
X92333152Y-91414344D01*
X92333152Y-91414344D02*
X92400496Y-91616374D01*
X92400496Y-91616374D02*
X92400496Y-91751061D01*
X92400496Y-91751061D02*
X92333152Y-91953092D01*
X92333152Y-91953092D02*
X92131122Y-92155122D01*
X92131122Y-92155122D02*
X91929091Y-92222466D01*
X91929091Y-92222466D02*
X91794404Y-92222466D01*
X91794404Y-92222466D02*
X91592374Y-92155122D01*
X91592374Y-92155122D02*
X91053626Y-91616374D01*
X92737213Y-94377458D02*
X92602526Y-94377458D01*
X92602526Y-94377458D02*
X92333152Y-94242771D01*
X92333152Y-94242771D02*
X92198465Y-94108084D01*
X92198465Y-94108084D02*
X92063778Y-93838710D01*
X92063778Y-93838710D02*
X92063778Y-93569336D01*
X92063778Y-93569336D02*
X92131122Y-93367305D01*
X92131122Y-93367305D02*
X92333152Y-93030588D01*
X92333152Y-93030588D02*
X92535183Y-92828557D01*
X92535183Y-92828557D02*
X92871900Y-92626527D01*
X92871900Y-92626527D02*
X93073931Y-92559183D01*
X93073931Y-92559183D02*
X93343305Y-92559183D01*
X93343305Y-92559183D02*
X93612679Y-92693870D01*
X93612679Y-92693870D02*
X93747366Y-92828557D01*
X93747366Y-92828557D02*
X93882053Y-93097931D01*
X93882053Y-93097931D02*
X93882053Y-93232618D01*
X93208618Y-95118236D02*
X94622831Y-93704023D01*
X94488144Y-96263076D02*
X94286114Y-96195732D01*
X94286114Y-96195732D02*
X94016740Y-95926358D01*
X94016740Y-95926358D02*
X93949396Y-95724328D01*
X93949396Y-95724328D02*
X94016740Y-95522297D01*
X94016740Y-95522297D02*
X94555488Y-94983549D01*
X94555488Y-94983549D02*
X94757518Y-94916206D01*
X94757518Y-94916206D02*
X94959549Y-94983549D01*
X94959549Y-94983549D02*
X95228923Y-95252923D01*
X95228923Y-95252923D02*
X95296266Y-95454954D01*
X95296266Y-95454954D02*
X95228923Y-95656984D01*
X95228923Y-95656984D02*
X95094236Y-95791671D01*
X95094236Y-95791671D02*
X94286114Y-95252923D01*
X96508450Y-97609946D02*
X97181885Y-98283381D01*
X95969702Y-97879320D02*
X97855320Y-96936511D01*
X97855320Y-96936511D02*
X96912511Y-98822129D01*
X98932816Y-98956817D02*
X97990007Y-99899626D01*
X98326725Y-98350725D02*
X97585946Y-99091504D01*
X97585946Y-99091504D02*
X97518603Y-99293534D01*
X97518603Y-99293534D02*
X97585946Y-99495565D01*
X97585946Y-99495565D02*
X97787977Y-99697595D01*
X97787977Y-99697595D02*
X97990007Y-99764939D01*
X97990007Y-99764939D02*
X98124694Y-99764939D01*
X98528755Y-100438374D02*
X100212343Y-100236343D01*
X99471564Y-99495565D02*
X99269534Y-101179152D01*
X99808282Y-101717901D02*
X100751091Y-100775092D01*
X101222496Y-100303687D02*
X101087809Y-100303687D01*
X101087809Y-100303687D02*
X101087809Y-100438374D01*
X101087809Y-100438374D02*
X101222496Y-100438374D01*
X101222496Y-100438374D02*
X101222496Y-100303687D01*
X101222496Y-100303687D02*
X101087809Y-100438374D01*
X100683748Y-102593366D02*
X100616404Y-102391336D01*
X100616404Y-102391336D02*
X100683748Y-102189305D01*
X100683748Y-102189305D02*
X101895931Y-100977122D01*
X101222496Y-103132114D02*
X102165305Y-102189305D01*
X102636709Y-101717901D02*
X102502022Y-101717901D01*
X102502022Y-101717901D02*
X102502022Y-101852588D01*
X102502022Y-101852588D02*
X102636709Y-101852588D01*
X102636709Y-101852588D02*
X102636709Y-101717901D01*
X102636709Y-101717901D02*
X102502022Y-101852588D01*
X102502022Y-104411641D02*
X103242801Y-103670862D01*
X103242801Y-103670862D02*
X103310144Y-103468832D01*
X103310144Y-103468832D02*
X103242801Y-103266801D01*
X103242801Y-103266801D02*
X102973427Y-102997427D01*
X102973427Y-102997427D02*
X102771396Y-102930084D01*
X102569366Y-104344297D02*
X102367335Y-104276954D01*
X102367335Y-104276954D02*
X102030618Y-103940236D01*
X102030618Y-103940236D02*
X101963274Y-103738206D01*
X101963274Y-103738206D02*
X102030618Y-103536175D01*
X102030618Y-103536175D02*
X102165305Y-103401488D01*
X102165305Y-103401488D02*
X102367335Y-103334145D01*
X102367335Y-103334145D02*
X102569366Y-103401488D01*
X102569366Y-103401488D02*
X102906083Y-103738206D01*
X102906083Y-103738206D02*
X103108114Y-103805549D01*
X103175457Y-105085076D02*
X104118267Y-104142267D01*
X103848893Y-104411641D02*
X104050923Y-104344297D01*
X104050923Y-104344297D02*
X104185610Y-104344297D01*
X104185610Y-104344297D02*
X104387641Y-104411641D01*
X104387641Y-104411641D02*
X104522328Y-104546328D01*
X104859045Y-104883045D02*
X104252953Y-106162572D01*
X105532480Y-105556480D02*
X104252953Y-106162572D01*
X104252953Y-106162572D02*
X103781549Y-106364602D01*
X103781549Y-106364602D02*
X103646862Y-106364602D01*
X103646862Y-106364602D02*
X103444831Y-106297259D01*
X74163279Y-80491820D02*
X74297966Y-80761194D01*
X74297966Y-80761194D02*
X74634683Y-81097912D01*
X74634683Y-81097912D02*
X74836714Y-81165255D01*
X74836714Y-81165255D02*
X74971401Y-81165255D01*
X74971401Y-81165255D02*
X75173431Y-81097912D01*
X75173431Y-81097912D02*
X75308118Y-80963225D01*
X75308118Y-80963225D02*
X75375462Y-80761194D01*
X75375462Y-80761194D02*
X75375462Y-80626507D01*
X75375462Y-80626507D02*
X75308118Y-80424477D01*
X75308118Y-80424477D02*
X75106088Y-80087759D01*
X75106088Y-80087759D02*
X75038744Y-79885729D01*
X75038744Y-79885729D02*
X75038744Y-79751042D01*
X75038744Y-79751042D02*
X75106088Y-79549011D01*
X75106088Y-79549011D02*
X75240775Y-79414324D01*
X75240775Y-79414324D02*
X75442805Y-79346981D01*
X75442805Y-79346981D02*
X75577492Y-79346981D01*
X75577492Y-79346981D02*
X75779523Y-79414324D01*
X75779523Y-79414324D02*
X76116240Y-79751042D01*
X76116240Y-79751042D02*
X76250927Y-80020416D01*
X75510149Y-81973377D02*
X76452958Y-81030568D01*
X76924363Y-80559164D02*
X76789676Y-80559164D01*
X76789676Y-80559164D02*
X76789676Y-80693851D01*
X76789676Y-80693851D02*
X76924363Y-80693851D01*
X76924363Y-80693851D02*
X76924363Y-80559164D01*
X76924363Y-80559164D02*
X76789676Y-80693851D01*
X77732485Y-82310095D02*
X76587645Y-83454935D01*
X76587645Y-83454935D02*
X76385615Y-83522278D01*
X76385615Y-83522278D02*
X76250928Y-83522278D01*
X76250928Y-83522278D02*
X76048897Y-83454935D01*
X76048897Y-83454935D02*
X75846867Y-83252904D01*
X75846867Y-83252904D02*
X75779523Y-83050874D01*
X76857019Y-83185561D02*
X76654989Y-83118217D01*
X76654989Y-83118217D02*
X76385615Y-82848843D01*
X76385615Y-82848843D02*
X76318271Y-82646813D01*
X76318271Y-82646813D02*
X76318271Y-82512126D01*
X76318271Y-82512126D02*
X76385615Y-82310095D01*
X76385615Y-82310095D02*
X76789676Y-81906034D01*
X76789676Y-81906034D02*
X76991706Y-81838691D01*
X76991706Y-81838691D02*
X77126393Y-81838691D01*
X77126393Y-81838691D02*
X77328424Y-81906034D01*
X77328424Y-81906034D02*
X77597798Y-82175408D01*
X77597798Y-82175408D02*
X77665141Y-82377439D01*
X78405920Y-82983530D02*
X77463111Y-83926339D01*
X78271233Y-83118217D02*
X78405920Y-83118217D01*
X78405920Y-83118217D02*
X78607950Y-83185561D01*
X78607950Y-83185561D02*
X78809981Y-83387591D01*
X78809981Y-83387591D02*
X78877324Y-83589622D01*
X78877324Y-83589622D02*
X78809981Y-83791652D01*
X78809981Y-83791652D02*
X78069202Y-84532431D01*
X79348729Y-85811957D02*
X80089507Y-85071179D01*
X80089507Y-85071179D02*
X80156851Y-84869148D01*
X80156851Y-84869148D02*
X80089507Y-84667118D01*
X80089507Y-84667118D02*
X79820133Y-84397744D01*
X79820133Y-84397744D02*
X79618103Y-84330400D01*
X79416072Y-85744614D02*
X79214042Y-85677270D01*
X79214042Y-85677270D02*
X78877324Y-85340553D01*
X78877324Y-85340553D02*
X78809981Y-85138522D01*
X78809981Y-85138522D02*
X78877324Y-84936492D01*
X78877324Y-84936492D02*
X79012011Y-84801805D01*
X79012011Y-84801805D02*
X79214042Y-84734461D01*
X79214042Y-84734461D02*
X79416072Y-84801805D01*
X79416072Y-84801805D02*
X79752790Y-85138522D01*
X79752790Y-85138522D02*
X79954820Y-85205866D01*
X80224195Y-86687423D02*
X80156851Y-86485393D01*
X80156851Y-86485393D02*
X80224195Y-86283362D01*
X80224195Y-86283362D02*
X81436378Y-85071179D01*
X83052622Y-88034294D02*
X83187309Y-88303668D01*
X83187309Y-88303668D02*
X83187309Y-88438355D01*
X83187309Y-88438355D02*
X83119966Y-88640385D01*
X83119966Y-88640385D02*
X82917935Y-88842416D01*
X82917935Y-88842416D02*
X82715905Y-88909759D01*
X82715905Y-88909759D02*
X82581218Y-88909759D01*
X82581218Y-88909759D02*
X82379187Y-88842416D01*
X82379187Y-88842416D02*
X81840439Y-88303668D01*
X81840439Y-88303668D02*
X83254653Y-86889454D01*
X83254653Y-86889454D02*
X83726057Y-87360858D01*
X83726057Y-87360858D02*
X83793401Y-87562889D01*
X83793401Y-87562889D02*
X83793401Y-87697576D01*
X83793401Y-87697576D02*
X83726057Y-87899607D01*
X83726057Y-87899607D02*
X83591370Y-88034294D01*
X83591370Y-88034294D02*
X83389340Y-88101637D01*
X83389340Y-88101637D02*
X83254653Y-88101637D01*
X83254653Y-88101637D02*
X83052622Y-88034294D01*
X83052622Y-88034294D02*
X82581218Y-87562889D01*
X83254653Y-89717881D02*
X84197462Y-88775072D01*
X83928088Y-89044446D02*
X84130118Y-88977103D01*
X84130118Y-88977103D02*
X84264805Y-88977103D01*
X84264805Y-88977103D02*
X84466836Y-89044446D01*
X84466836Y-89044446D02*
X84601523Y-89179133D01*
X84736209Y-91064751D02*
X84534179Y-90997407D01*
X84534179Y-90997407D02*
X84264805Y-90728033D01*
X84264805Y-90728033D02*
X84197461Y-90526003D01*
X84197461Y-90526003D02*
X84264805Y-90323972D01*
X84264805Y-90323972D02*
X84803553Y-89785224D01*
X84803553Y-89785224D02*
X85005583Y-89717881D01*
X85005583Y-89717881D02*
X85207614Y-89785224D01*
X85207614Y-89785224D02*
X85476988Y-90054598D01*
X85476988Y-90054598D02*
X85544331Y-90256629D01*
X85544331Y-90256629D02*
X85476988Y-90458659D01*
X85476988Y-90458659D02*
X85342301Y-90593346D01*
X85342301Y-90593346D02*
X84534179Y-90054598D01*
X85948393Y-92411621D02*
X86689171Y-91670843D01*
X86689171Y-91670843D02*
X86756515Y-91468812D01*
X86756515Y-91468812D02*
X86689171Y-91266782D01*
X86689171Y-91266782D02*
X86419797Y-90997408D01*
X86419797Y-90997408D02*
X86217767Y-90930064D01*
X86015736Y-92344278D02*
X85813706Y-92276934D01*
X85813706Y-92276934D02*
X85476988Y-91940217D01*
X85476988Y-91940217D02*
X85409645Y-91738186D01*
X85409645Y-91738186D02*
X85476988Y-91536156D01*
X85476988Y-91536156D02*
X85611675Y-91401469D01*
X85611675Y-91401469D02*
X85813706Y-91334125D01*
X85813706Y-91334125D02*
X86015736Y-91401469D01*
X86015736Y-91401469D02*
X86352454Y-91738186D01*
X86352454Y-91738186D02*
X86554484Y-91805530D01*
X86621828Y-93085056D02*
X88036041Y-91670843D01*
X87295263Y-92680995D02*
X87160576Y-93623804D01*
X88103385Y-92680995D02*
X87025889Y-92680995D01*
X87968698Y-94431927D02*
X87901355Y-94229896D01*
X87901355Y-94229896D02*
X87901355Y-94095209D01*
X87901355Y-94095209D02*
X87968698Y-93893179D01*
X87968698Y-93893179D02*
X88372759Y-93489118D01*
X88372759Y-93489118D02*
X88574790Y-93421774D01*
X88574790Y-93421774D02*
X88709477Y-93421774D01*
X88709477Y-93421774D02*
X88911507Y-93489118D01*
X88911507Y-93489118D02*
X89113538Y-93691148D01*
X89113538Y-93691148D02*
X89180881Y-93893179D01*
X89180881Y-93893179D02*
X89180881Y-94027866D01*
X89180881Y-94027866D02*
X89113538Y-94229896D01*
X89113538Y-94229896D02*
X88709477Y-94633957D01*
X88709477Y-94633957D02*
X88507446Y-94701301D01*
X88507446Y-94701301D02*
X88372759Y-94701301D01*
X88372759Y-94701301D02*
X88170729Y-94633957D01*
X88170729Y-94633957D02*
X87968698Y-94431927D01*
X90595095Y-95172705D02*
X89652286Y-96115514D01*
X89989003Y-94566614D02*
X89248225Y-95307392D01*
X89248225Y-95307392D02*
X89180881Y-95509423D01*
X89180881Y-95509423D02*
X89248225Y-95711453D01*
X89248225Y-95711453D02*
X89450255Y-95913484D01*
X89450255Y-95913484D02*
X89652286Y-95980827D01*
X89652286Y-95980827D02*
X89786973Y-95980827D01*
X91066500Y-95644110D02*
X91605248Y-96182858D01*
X91739935Y-95374736D02*
X90527752Y-96586919D01*
X90527752Y-96586919D02*
X90460408Y-96788950D01*
X90460408Y-96788950D02*
X90527752Y-96990980D01*
X90527752Y-96990980D02*
X90662439Y-97125667D01*
X93154148Y-99348003D02*
X93019461Y-99348003D01*
X93019461Y-99348003D02*
X92750087Y-99213316D01*
X92750087Y-99213316D02*
X92615400Y-99078629D01*
X92615400Y-99078629D02*
X92480713Y-98809255D01*
X92480713Y-98809255D02*
X92480713Y-98539881D01*
X92480713Y-98539881D02*
X92548057Y-98337850D01*
X92548057Y-98337850D02*
X92750087Y-98001133D01*
X92750087Y-98001133D02*
X92952118Y-97799102D01*
X92952118Y-97799102D02*
X93288835Y-97597072D01*
X93288835Y-97597072D02*
X93490866Y-97529728D01*
X93490866Y-97529728D02*
X93760240Y-97529728D01*
X93760240Y-97529728D02*
X94029614Y-97664415D01*
X94029614Y-97664415D02*
X94164301Y-97799102D01*
X94164301Y-97799102D02*
X94298988Y-98068476D01*
X94298988Y-98068476D02*
X94298988Y-98203163D01*
X94231644Y-100694873D02*
X94972423Y-99954094D01*
X94972423Y-99954094D02*
X95039767Y-99752064D01*
X95039767Y-99752064D02*
X94972423Y-99550033D01*
X94972423Y-99550033D02*
X94703049Y-99280659D01*
X94703049Y-99280659D02*
X94501018Y-99213316D01*
X94298988Y-100627530D02*
X94096957Y-100560186D01*
X94096957Y-100560186D02*
X93760240Y-100223468D01*
X93760240Y-100223468D02*
X93692896Y-100021438D01*
X93692896Y-100021438D02*
X93760240Y-99819407D01*
X93760240Y-99819407D02*
X93894927Y-99684720D01*
X93894927Y-99684720D02*
X94096957Y-99617377D01*
X94096957Y-99617377D02*
X94298988Y-99684720D01*
X94298988Y-99684720D02*
X94635705Y-100021438D01*
X94635705Y-100021438D02*
X94837736Y-100088781D01*
X94905080Y-101368308D02*
X95847889Y-100425499D01*
X95578515Y-100694873D02*
X95780545Y-100627530D01*
X95780545Y-100627530D02*
X95915232Y-100627530D01*
X95915232Y-100627530D02*
X96117263Y-100694873D01*
X96117263Y-100694873D02*
X96251950Y-100829560D01*
X96386637Y-102849865D02*
X97800850Y-101435652D01*
X96453980Y-102782522D02*
X96251950Y-102715178D01*
X96251950Y-102715178D02*
X95982576Y-102445804D01*
X95982576Y-102445804D02*
X95915232Y-102243774D01*
X95915232Y-102243774D02*
X95915232Y-102109087D01*
X95915232Y-102109087D02*
X95982576Y-101907056D01*
X95982576Y-101907056D02*
X96386637Y-101502995D01*
X96386637Y-101502995D02*
X96588667Y-101435652D01*
X96588667Y-101435652D02*
X96723354Y-101435652D01*
X96723354Y-101435652D02*
X96925385Y-101502995D01*
X96925385Y-101502995D02*
X97194759Y-101772369D01*
X97194759Y-101772369D02*
X97262102Y-101974400D01*
X99349751Y-102984553D02*
X98406942Y-104870171D01*
X98406942Y-104870171D02*
X100292560Y-103927362D01*
X100090530Y-106553758D02*
X99282408Y-105745636D01*
X99686469Y-106149697D02*
X101100682Y-104735484D01*
X101100682Y-104735484D02*
X100763965Y-104802827D01*
X100763965Y-104802827D02*
X100494591Y-104802827D01*
X100494591Y-104802827D02*
X100292560Y-104735484D01*
X100831308Y-107025163D02*
X100831308Y-107159850D01*
X100831308Y-107159850D02*
X100696621Y-107159850D01*
X100696621Y-107159850D02*
X100696621Y-107025163D01*
X100696621Y-107025163D02*
X100831308Y-107025163D01*
X100831308Y-107025163D02*
X100696621Y-107159850D01*
X103053644Y-106688446D02*
X103188331Y-106823133D01*
X103188331Y-106823133D02*
X103255675Y-107025163D01*
X103255675Y-107025163D02*
X103255675Y-107159850D01*
X103255675Y-107159850D02*
X103188331Y-107361881D01*
X103188331Y-107361881D02*
X102986301Y-107698598D01*
X102986301Y-107698598D02*
X102649583Y-108035316D01*
X102649583Y-108035316D02*
X102312866Y-108237346D01*
X102312866Y-108237346D02*
X102110835Y-108304690D01*
X102110835Y-108304690D02*
X101976148Y-108304690D01*
X101976148Y-108304690D02*
X101774118Y-108237346D01*
X101774118Y-108237346D02*
X101639431Y-108102659D01*
X101639431Y-108102659D02*
X101572087Y-107900629D01*
X101572087Y-107900629D02*
X101572087Y-107765942D01*
X101572087Y-107765942D02*
X101639431Y-107563911D01*
X101639431Y-107563911D02*
X101841461Y-107227194D01*
X101841461Y-107227194D02*
X102178179Y-106890476D01*
X102178179Y-106890476D02*
X102514896Y-106688446D01*
X102514896Y-106688446D02*
X102716927Y-106621102D01*
X102716927Y-106621102D02*
X102851614Y-106621102D01*
X102851614Y-106621102D02*
X103053644Y-106688446D01*
D11*
X83604580Y-97991666D02*
X83652200Y-98039285D01*
X83652200Y-98039285D02*
X83699819Y-98182142D01*
X83699819Y-98182142D02*
X83699819Y-98277380D01*
X83699819Y-98277380D02*
X83652200Y-98420237D01*
X83652200Y-98420237D02*
X83556961Y-98515475D01*
X83556961Y-98515475D02*
X83461723Y-98563094D01*
X83461723Y-98563094D02*
X83271247Y-98610713D01*
X83271247Y-98610713D02*
X83128390Y-98610713D01*
X83128390Y-98610713D02*
X82937914Y-98563094D01*
X82937914Y-98563094D02*
X82842676Y-98515475D01*
X82842676Y-98515475D02*
X82747438Y-98420237D01*
X82747438Y-98420237D02*
X82699819Y-98277380D01*
X82699819Y-98277380D02*
X82699819Y-98182142D01*
X82699819Y-98182142D02*
X82747438Y-98039285D01*
X82747438Y-98039285D02*
X82795057Y-97991666D01*
X82699819Y-97658332D02*
X82699819Y-97039285D01*
X82699819Y-97039285D02*
X83080771Y-97372618D01*
X83080771Y-97372618D02*
X83080771Y-97229761D01*
X83080771Y-97229761D02*
X83128390Y-97134523D01*
X83128390Y-97134523D02*
X83176009Y-97086904D01*
X83176009Y-97086904D02*
X83271247Y-97039285D01*
X83271247Y-97039285D02*
X83509342Y-97039285D01*
X83509342Y-97039285D02*
X83604580Y-97086904D01*
X83604580Y-97086904D02*
X83652200Y-97134523D01*
X83652200Y-97134523D02*
X83699819Y-97229761D01*
X83699819Y-97229761D02*
X83699819Y-97515475D01*
X83699819Y-97515475D02*
X83652200Y-97610713D01*
X83652200Y-97610713D02*
X83604580Y-97658332D01*
X81186904Y-100065180D02*
X81186904Y-99255657D01*
X81186904Y-99255657D02*
X81139285Y-99160419D01*
X81139285Y-99160419D02*
X81091666Y-99112800D01*
X81091666Y-99112800D02*
X80996428Y-99065180D01*
X80996428Y-99065180D02*
X80805952Y-99065180D01*
X80805952Y-99065180D02*
X80710714Y-99112800D01*
X80710714Y-99112800D02*
X80663095Y-99160419D01*
X80663095Y-99160419D02*
X80615476Y-99255657D01*
X80615476Y-99255657D02*
X80615476Y-100065180D01*
X79615476Y-99065180D02*
X80186904Y-99065180D01*
X79901190Y-99065180D02*
X79901190Y-100065180D01*
X79901190Y-100065180D02*
X79996428Y-99922323D01*
X79996428Y-99922323D02*
X80091666Y-99827085D01*
X80091666Y-99827085D02*
X80186904Y-99779466D01*
X85120180Y-103603333D02*
X85120180Y-103127143D01*
X85120180Y-103127143D02*
X86120180Y-103127143D01*
X85120180Y-104460476D02*
X85120180Y-103889048D01*
X85120180Y-104174762D02*
X86120180Y-104174762D01*
X86120180Y-104174762D02*
X85977323Y-104079524D01*
X85977323Y-104079524D02*
X85882085Y-103984286D01*
X85882085Y-103984286D02*
X85834466Y-103889048D01*
X81928333Y-107889580D02*
X81880714Y-107937200D01*
X81880714Y-107937200D02*
X81737857Y-107984819D01*
X81737857Y-107984819D02*
X81642619Y-107984819D01*
X81642619Y-107984819D02*
X81499762Y-107937200D01*
X81499762Y-107937200D02*
X81404524Y-107841961D01*
X81404524Y-107841961D02*
X81356905Y-107746723D01*
X81356905Y-107746723D02*
X81309286Y-107556247D01*
X81309286Y-107556247D02*
X81309286Y-107413390D01*
X81309286Y-107413390D02*
X81356905Y-107222914D01*
X81356905Y-107222914D02*
X81404524Y-107127676D01*
X81404524Y-107127676D02*
X81499762Y-107032438D01*
X81499762Y-107032438D02*
X81642619Y-106984819D01*
X81642619Y-106984819D02*
X81737857Y-106984819D01*
X81737857Y-106984819D02*
X81880714Y-107032438D01*
X81880714Y-107032438D02*
X81928333Y-107080057D01*
X82309286Y-107080057D02*
X82356905Y-107032438D01*
X82356905Y-107032438D02*
X82452143Y-106984819D01*
X82452143Y-106984819D02*
X82690238Y-106984819D01*
X82690238Y-106984819D02*
X82785476Y-107032438D01*
X82785476Y-107032438D02*
X82833095Y-107080057D01*
X82833095Y-107080057D02*
X82880714Y-107175295D01*
X82880714Y-107175295D02*
X82880714Y-107270533D01*
X82880714Y-107270533D02*
X82833095Y-107413390D01*
X82833095Y-107413390D02*
X82261667Y-107984819D01*
X82261667Y-107984819D02*
X82880714Y-107984819D01*
X78888333Y-106099580D02*
X78840714Y-106147200D01*
X78840714Y-106147200D02*
X78697857Y-106194819D01*
X78697857Y-106194819D02*
X78602619Y-106194819D01*
X78602619Y-106194819D02*
X78459762Y-106147200D01*
X78459762Y-106147200D02*
X78364524Y-106051961D01*
X78364524Y-106051961D02*
X78316905Y-105956723D01*
X78316905Y-105956723D02*
X78269286Y-105766247D01*
X78269286Y-105766247D02*
X78269286Y-105623390D01*
X78269286Y-105623390D02*
X78316905Y-105432914D01*
X78316905Y-105432914D02*
X78364524Y-105337676D01*
X78364524Y-105337676D02*
X78459762Y-105242438D01*
X78459762Y-105242438D02*
X78602619Y-105194819D01*
X78602619Y-105194819D02*
X78697857Y-105194819D01*
X78697857Y-105194819D02*
X78840714Y-105242438D01*
X78840714Y-105242438D02*
X78888333Y-105290057D01*
X79840714Y-106194819D02*
X79269286Y-106194819D01*
X79555000Y-106194819D02*
X79555000Y-105194819D01*
X79555000Y-105194819D02*
X79459762Y-105337676D01*
X79459762Y-105337676D02*
X79364524Y-105432914D01*
X79364524Y-105432914D02*
X79269286Y-105480533D01*
X50502319Y-105083333D02*
X51216604Y-105083333D01*
X51216604Y-105083333D02*
X51359461Y-105130952D01*
X51359461Y-105130952D02*
X51454700Y-105226190D01*
X51454700Y-105226190D02*
X51502319Y-105369047D01*
X51502319Y-105369047D02*
X51502319Y-105464285D01*
X50502319Y-104702380D02*
X50502319Y-104083333D01*
X50502319Y-104083333D02*
X50883271Y-104416666D01*
X50883271Y-104416666D02*
X50883271Y-104273809D01*
X50883271Y-104273809D02*
X50930890Y-104178571D01*
X50930890Y-104178571D02*
X50978509Y-104130952D01*
X50978509Y-104130952D02*
X51073747Y-104083333D01*
X51073747Y-104083333D02*
X51311842Y-104083333D01*
X51311842Y-104083333D02*
X51407080Y-104130952D01*
X51407080Y-104130952D02*
X51454700Y-104178571D01*
X51454700Y-104178571D02*
X51502319Y-104273809D01*
X51502319Y-104273809D02*
X51502319Y-104559523D01*
X51502319Y-104559523D02*
X51454700Y-104654761D01*
X51454700Y-104654761D02*
X51407080Y-104702380D01*
D12*
%TO.C,G\u002A\u002A\u002A*%
G36*
X106733684Y-106110565D02*
G01*
X106734490Y-106114057D01*
X106735531Y-106118843D01*
X106736601Y-106123980D01*
X106736768Y-106124804D01*
X106738080Y-106130982D01*
X106739879Y-106138968D01*
X106742069Y-106148368D01*
X106744553Y-106158791D01*
X106747237Y-106169841D01*
X106750025Y-106181128D01*
X106752819Y-106192258D01*
X106755526Y-106202836D01*
X106758048Y-106212471D01*
X106759181Y-106216703D01*
X106776396Y-106276403D01*
X106795436Y-106334742D01*
X106816300Y-106391720D01*
X106838987Y-106447335D01*
X106863497Y-106501588D01*
X106889832Y-106554477D01*
X106917989Y-106606004D01*
X106947968Y-106656165D01*
X106979770Y-106704963D01*
X107013394Y-106752396D01*
X107048838Y-106798462D01*
X107086106Y-106843163D01*
X107125192Y-106886496D01*
X107166101Y-106928464D01*
X107208828Y-106969063D01*
X107253377Y-107008294D01*
X107267727Y-107020319D01*
X107314583Y-107057721D01*
X107363327Y-107093886D01*
X107413961Y-107128812D01*
X107466489Y-107162503D01*
X107520915Y-107194962D01*
X107577243Y-107226189D01*
X107635477Y-107256188D01*
X107695620Y-107284960D01*
X107757678Y-107312509D01*
X107821652Y-107338835D01*
X107857169Y-107352609D01*
X107873596Y-107358752D01*
X107891758Y-107365371D01*
X107911203Y-107372312D01*
X107931482Y-107379421D01*
X107952140Y-107386541D01*
X107972726Y-107393519D01*
X107992791Y-107400197D01*
X108011880Y-107406423D01*
X108029542Y-107412039D01*
X108035803Y-107413987D01*
X108052501Y-107419144D01*
X108060888Y-107446057D01*
X108082739Y-107513382D01*
X108105822Y-107579107D01*
X108130117Y-107643188D01*
X108155601Y-107705578D01*
X108182255Y-107766230D01*
X108210056Y-107825101D01*
X108238984Y-107882143D01*
X108269018Y-107937310D01*
X108300134Y-107990557D01*
X108332315Y-108041837D01*
X108344011Y-108059592D01*
X108379161Y-108110350D01*
X108415639Y-108159262D01*
X108453441Y-108206327D01*
X108492567Y-108251545D01*
X108533012Y-108294912D01*
X108574778Y-108336426D01*
X108617859Y-108376086D01*
X108662256Y-108413889D01*
X108707965Y-108449835D01*
X108754985Y-108483920D01*
X108803314Y-108516144D01*
X108852949Y-108546504D01*
X108899885Y-108572851D01*
X108948650Y-108597924D01*
X108999081Y-108621581D01*
X109051016Y-108643766D01*
X109104295Y-108664418D01*
X109158754Y-108683482D01*
X109214232Y-108700901D01*
X109270569Y-108716617D01*
X109327604Y-108730573D01*
X109370097Y-108739720D01*
X109373777Y-108740467D01*
X108960103Y-109154122D01*
X108927628Y-109186594D01*
X108896717Y-109217502D01*
X108867323Y-109246891D01*
X108839398Y-109274807D01*
X108812897Y-109301295D01*
X108787774Y-109326401D01*
X108763982Y-109350172D01*
X108741474Y-109372652D01*
X108720205Y-109393887D01*
X108700126Y-109413924D01*
X108681192Y-109432807D01*
X108663356Y-109450583D01*
X108646573Y-109467297D01*
X108630795Y-109482994D01*
X108615976Y-109497722D01*
X108602070Y-109511524D01*
X108589029Y-109524449D01*
X108576809Y-109536539D01*
X108565361Y-109547843D01*
X108554641Y-109558403D01*
X108544600Y-109568269D01*
X108535192Y-109577483D01*
X108526372Y-109586093D01*
X108518093Y-109594145D01*
X108510308Y-109601682D01*
X108502970Y-109608753D01*
X108496033Y-109615401D01*
X108489452Y-109621674D01*
X108483180Y-109627615D01*
X108477168Y-109633272D01*
X108471372Y-109638690D01*
X108465745Y-109643916D01*
X108460241Y-109648993D01*
X108454812Y-109653968D01*
X108449413Y-109658887D01*
X108443997Y-109663796D01*
X108438517Y-109668741D01*
X108432927Y-109673766D01*
X108427181Y-109678918D01*
X108421231Y-109684242D01*
X108419616Y-109685687D01*
X108353339Y-109743672D01*
X108284946Y-109801002D01*
X108214517Y-109857629D01*
X108142133Y-109913505D01*
X108067872Y-109968585D01*
X107991811Y-110022820D01*
X107914032Y-110076164D01*
X107834614Y-110128570D01*
X107753634Y-110179990D01*
X107671174Y-110230377D01*
X107587311Y-110279683D01*
X107502126Y-110327863D01*
X107415697Y-110374867D01*
X107328104Y-110420650D01*
X107239425Y-110465164D01*
X107149740Y-110508362D01*
X107059127Y-110550198D01*
X106967668Y-110590622D01*
X106875440Y-110629589D01*
X106782524Y-110667052D01*
X106751672Y-110679096D01*
X106663120Y-110712575D01*
X106574592Y-110744435D01*
X106486159Y-110774657D01*
X106397898Y-110803226D01*
X106309886Y-110830124D01*
X106222196Y-110855332D01*
X106134904Y-110878835D01*
X106048086Y-110900616D01*
X105961817Y-110920655D01*
X105876171Y-110938937D01*
X105791226Y-110955444D01*
X105707056Y-110970160D01*
X105623737Y-110983065D01*
X105541342Y-110994144D01*
X105459948Y-111003379D01*
X105379632Y-111010752D01*
X105300467Y-111016247D01*
X105274148Y-111017669D01*
X105255256Y-111018522D01*
X105234885Y-111019273D01*
X105213348Y-111019919D01*
X105190961Y-111020457D01*
X105168040Y-111020885D01*
X105144900Y-111021199D01*
X105121856Y-111021397D01*
X105099224Y-111021476D01*
X105077319Y-111021433D01*
X105056457Y-111021266D01*
X105036955Y-111020971D01*
X105019124Y-111020547D01*
X105004773Y-111020050D01*
X104949017Y-111017303D01*
X104895140Y-111013677D01*
X104842906Y-111009143D01*
X104792082Y-111003671D01*
X104742434Y-110997228D01*
X104693726Y-110989785D01*
X104645723Y-110981313D01*
X104598192Y-110971779D01*
X104550897Y-110961152D01*
X104547977Y-110960459D01*
X104540658Y-110958709D01*
X104533971Y-110957094D01*
X104528273Y-110955704D01*
X104523923Y-110954625D01*
X104521278Y-110953946D01*
X104520758Y-110953800D01*
X104519970Y-110953328D01*
X104519213Y-110952266D01*
X104518425Y-110950373D01*
X104517540Y-110947413D01*
X104516495Y-110943145D01*
X104515226Y-110937330D01*
X104513667Y-110929731D01*
X104511956Y-110921130D01*
X104500636Y-110858737D01*
X104490986Y-110794808D01*
X104483005Y-110729355D01*
X104476694Y-110662393D01*
X104472055Y-110593933D01*
X104469087Y-110523989D01*
X104467792Y-110452574D01*
X104468169Y-110379702D01*
X104470219Y-110305384D01*
X104473943Y-110229636D01*
X104476672Y-110189333D01*
X104842501Y-110189333D01*
X104843461Y-110249592D01*
X104845247Y-110296763D01*
X104847848Y-110342160D01*
X104851298Y-110386145D01*
X104855627Y-110429080D01*
X104860869Y-110471329D01*
X104866196Y-110507804D01*
X104867242Y-110514302D01*
X104868508Y-110521833D01*
X104869940Y-110530106D01*
X104871484Y-110538834D01*
X104873085Y-110547725D01*
X104874691Y-110556490D01*
X104876249Y-110564841D01*
X104877704Y-110572488D01*
X104879003Y-110579139D01*
X104880090Y-110584508D01*
X104880915Y-110588303D01*
X104881422Y-110590236D01*
X104881508Y-110590413D01*
X104882694Y-110590805D01*
X104885696Y-110591623D01*
X104890116Y-110592760D01*
X104895555Y-110594115D01*
X104898220Y-110594766D01*
X104907260Y-110596884D01*
X104918085Y-110599294D01*
X104930236Y-110601905D01*
X104943256Y-110604622D01*
X104956685Y-110607354D01*
X104970064Y-110610007D01*
X104982934Y-110612490D01*
X104994837Y-110614708D01*
X105005314Y-110616567D01*
X105008808Y-110617158D01*
X105066237Y-110625736D01*
X105125141Y-110632628D01*
X105185464Y-110637831D01*
X105247149Y-110641342D01*
X105310140Y-110643159D01*
X105374380Y-110643281D01*
X105439813Y-110641704D01*
X105506383Y-110638427D01*
X105519462Y-110637593D01*
X105591464Y-110631901D01*
X105664586Y-110624299D01*
X105738744Y-110614806D01*
X105813851Y-110603443D01*
X105889820Y-110590231D01*
X105966568Y-110575189D01*
X106044006Y-110558338D01*
X106122052Y-110539698D01*
X106200617Y-110519289D01*
X106279616Y-110497133D01*
X106358964Y-110473249D01*
X106438575Y-110447656D01*
X106518363Y-110420377D01*
X106598242Y-110391431D01*
X106662511Y-110366949D01*
X106747425Y-110332960D01*
X106831657Y-110297383D01*
X106915109Y-110260272D01*
X106997683Y-110221682D01*
X107079283Y-110181670D01*
X107159812Y-110140294D01*
X107239170Y-110097607D01*
X107317264Y-110053669D01*
X107393993Y-110008531D01*
X107469263Y-109962252D01*
X107542974Y-109914888D01*
X107615031Y-109866496D01*
X107685336Y-109817130D01*
X107753791Y-109766846D01*
X107820299Y-109715702D01*
X107884764Y-109663753D01*
X107892322Y-109657497D01*
X107906309Y-109645830D01*
X107920025Y-109634263D01*
X107933712Y-109622587D01*
X107947608Y-109610593D01*
X107961955Y-109598072D01*
X107976993Y-109584811D01*
X107992964Y-109570603D01*
X108010107Y-109555237D01*
X108028162Y-109538956D01*
X108030488Y-109536801D01*
X108033856Y-109533596D01*
X108038291Y-109529317D01*
X108043820Y-109523938D01*
X108050470Y-109517433D01*
X108058264Y-109509776D01*
X108067228Y-109500943D01*
X108077390Y-109490907D01*
X108088773Y-109479643D01*
X108101405Y-109467126D01*
X108115311Y-109453329D01*
X108130517Y-109438226D01*
X108147047Y-109421794D01*
X108164928Y-109404006D01*
X108184187Y-109384836D01*
X108204848Y-109364259D01*
X108226938Y-109342249D01*
X108250481Y-109318782D01*
X108275505Y-109293829D01*
X108302033Y-109267369D01*
X108330094Y-109239373D01*
X108359711Y-109209815D01*
X108390755Y-109178829D01*
X108733899Y-108836284D01*
X108730179Y-108835514D01*
X108700187Y-108828825D01*
X108668820Y-108820905D01*
X108636516Y-108811895D01*
X108603719Y-108801936D01*
X108570871Y-108791169D01*
X108538411Y-108779732D01*
X108506783Y-108767765D01*
X108476428Y-108755410D01*
X108472555Y-108753765D01*
X108424323Y-108731939D01*
X108377240Y-108708164D01*
X108331351Y-108682467D01*
X108286698Y-108654872D01*
X108243324Y-108625405D01*
X108201272Y-108594093D01*
X108187043Y-108582838D01*
X108158612Y-108559162D01*
X108129995Y-108533706D01*
X108101618Y-108506888D01*
X108073906Y-108479121D01*
X108047284Y-108450822D01*
X108022179Y-108422406D01*
X108019622Y-108419401D01*
X107986457Y-108378714D01*
X107954546Y-108336352D01*
X107923867Y-108292278D01*
X107894401Y-108246456D01*
X107866124Y-108198846D01*
X107839015Y-108149412D01*
X107813052Y-108098117D01*
X107788217Y-108044922D01*
X107764486Y-107989790D01*
X107741836Y-107932683D01*
X107740217Y-107928415D01*
X107734757Y-107913762D01*
X107728949Y-107897774D01*
X107722977Y-107880985D01*
X107717027Y-107863926D01*
X107711283Y-107847133D01*
X107705930Y-107831138D01*
X107701155Y-107816473D01*
X107699177Y-107810241D01*
X107690177Y-107781584D01*
X107672285Y-107775953D01*
X107611261Y-107755883D01*
X107552027Y-107734650D01*
X107494604Y-107712265D01*
X107439016Y-107688739D01*
X107385286Y-107664085D01*
X107333437Y-107638313D01*
X107283493Y-107611434D01*
X107235476Y-107583462D01*
X107189408Y-107554406D01*
X107145313Y-107524279D01*
X107103216Y-107493092D01*
X107098601Y-107489514D01*
X107084484Y-107478445D01*
X107071700Y-107468243D01*
X107059939Y-107458635D01*
X107048892Y-107449345D01*
X107038250Y-107440101D01*
X107027705Y-107430626D01*
X107016944Y-107420648D01*
X107005662Y-107409890D01*
X106993548Y-107398079D01*
X106980292Y-107384940D01*
X106976312Y-107380964D01*
X106964413Y-107369016D01*
X106953920Y-107358367D01*
X106944585Y-107348747D01*
X106936164Y-107339885D01*
X106928411Y-107331513D01*
X106921081Y-107323359D01*
X106913929Y-107315152D01*
X106906709Y-107306624D01*
X106899176Y-107297503D01*
X106891086Y-107287520D01*
X106888199Y-107283926D01*
X106856489Y-107242585D01*
X106826652Y-107200020D01*
X106798654Y-107156179D01*
X106772464Y-107111006D01*
X106748051Y-107064448D01*
X106725384Y-107016453D01*
X106714764Y-106992067D01*
X106702267Y-106961271D01*
X106690083Y-106928718D01*
X106678377Y-106894925D01*
X106667312Y-106860406D01*
X106657051Y-106825675D01*
X106647757Y-106791249D01*
X106639595Y-106757642D01*
X106637616Y-106748822D01*
X106635292Y-106738265D01*
X106321732Y-107051336D01*
X106292792Y-107080232D01*
X106265414Y-107107575D01*
X106239545Y-107133414D01*
X106215136Y-107157803D01*
X106192133Y-107180796D01*
X106170484Y-107202441D01*
X106150140Y-107222793D01*
X106131048Y-107241906D01*
X106113156Y-107259828D01*
X106096413Y-107276614D01*
X106080767Y-107292316D01*
X106066168Y-107306986D01*
X106052562Y-107320676D01*
X106039899Y-107333439D01*
X106028126Y-107345327D01*
X106017194Y-107356391D01*
X106007049Y-107366684D01*
X105997640Y-107376260D01*
X105988916Y-107385168D01*
X105980825Y-107393464D01*
X105973315Y-107401196D01*
X105966336Y-107408421D01*
X105959834Y-107415187D01*
X105953760Y-107421548D01*
X105948060Y-107427557D01*
X105942685Y-107433267D01*
X105937581Y-107438727D01*
X105932698Y-107443992D01*
X105927983Y-107449113D01*
X105923386Y-107454142D01*
X105918855Y-107459133D01*
X105914740Y-107463689D01*
X105864432Y-107520961D01*
X105814764Y-107580364D01*
X105765778Y-107641835D01*
X105717513Y-107705310D01*
X105670009Y-107770723D01*
X105623308Y-107838012D01*
X105577448Y-107907112D01*
X105532471Y-107977959D01*
X105488417Y-108050489D01*
X105445326Y-108124636D01*
X105403238Y-108200337D01*
X105362193Y-108277529D01*
X105322233Y-108356145D01*
X105283398Y-108436123D01*
X105245727Y-108517398D01*
X105226429Y-108560564D01*
X105193446Y-108636986D01*
X105161820Y-108713714D01*
X105131571Y-108790668D01*
X105102716Y-108867769D01*
X105075275Y-108944936D01*
X105049264Y-109022089D01*
X105024703Y-109099147D01*
X105001608Y-109176033D01*
X104979999Y-109252664D01*
X104959893Y-109328960D01*
X104941309Y-109404843D01*
X104924265Y-109480232D01*
X104908778Y-109555046D01*
X104894867Y-109629206D01*
X104882552Y-109702633D01*
X104871847Y-109775245D01*
X104862775Y-109846962D01*
X104855351Y-109917705D01*
X104849593Y-109987394D01*
X104845520Y-110055948D01*
X104843150Y-110123289D01*
X104842501Y-110189333D01*
X104476672Y-110189333D01*
X104478006Y-110169625D01*
X104485427Y-110084040D01*
X104494805Y-109997434D01*
X104506111Y-109909895D01*
X104519313Y-109821513D01*
X104534381Y-109732375D01*
X104551285Y-109642573D01*
X104569994Y-109552194D01*
X104590478Y-109461328D01*
X104612706Y-109370063D01*
X104636649Y-109278489D01*
X104662275Y-109186694D01*
X104689555Y-109094767D01*
X104718458Y-109002800D01*
X104748953Y-108910878D01*
X104781011Y-108819092D01*
X104814601Y-108727531D01*
X104849691Y-108636284D01*
X104886253Y-108545439D01*
X104924256Y-108455087D01*
X104963668Y-108365315D01*
X105004462Y-108276213D01*
X105046604Y-108187870D01*
X105090065Y-108100374D01*
X105134816Y-108013817D01*
X105180823Y-107928284D01*
X105228060Y-107843867D01*
X105276494Y-107760654D01*
X105326095Y-107678734D01*
X105330945Y-107670896D01*
X105375019Y-107601047D01*
X105419925Y-107532328D01*
X105465552Y-107464893D01*
X105511790Y-107398896D01*
X105558527Y-107334491D01*
X105605652Y-107271831D01*
X105653058Y-107211072D01*
X105700630Y-107152366D01*
X105722092Y-107126625D01*
X105726802Y-107121027D01*
X105732550Y-107114195D01*
X105738908Y-107106636D01*
X105745450Y-107098859D01*
X105751749Y-107091370D01*
X105754090Y-107088587D01*
X105772846Y-107066288D01*
X105903525Y-106935481D01*
X106252667Y-106585996D01*
X106732489Y-106105704D01*
X106733684Y-106110565D01*
G37*
G36*
X106568364Y-108027100D02*
G01*
X106612598Y-108029512D01*
X106656714Y-108034088D01*
X106700629Y-108040835D01*
X106744258Y-108049754D01*
X106787516Y-108060849D01*
X106830320Y-108074122D01*
X106872586Y-108089578D01*
X106878683Y-108092008D01*
X106920083Y-108109901D01*
X106960454Y-108129800D01*
X106999723Y-108151647D01*
X107037815Y-108175384D01*
X107074658Y-108200956D01*
X107110178Y-108228306D01*
X107144303Y-108257375D01*
X107176958Y-108288107D01*
X107208070Y-108320446D01*
X107237568Y-108354333D01*
X107265376Y-108389714D01*
X107270428Y-108396554D01*
X107296230Y-108433745D01*
X107320060Y-108472036D01*
X107341891Y-108511350D01*
X107361699Y-108551608D01*
X107379460Y-108592733D01*
X107395147Y-108634649D01*
X107408735Y-108677277D01*
X107420199Y-108720539D01*
X107429512Y-108764359D01*
X107436652Y-108808659D01*
X107441590Y-108853362D01*
X107444303Y-108898388D01*
X107444864Y-108929841D01*
X107443761Y-108975031D01*
X107440434Y-109019864D01*
X107434918Y-109064266D01*
X107427248Y-109108168D01*
X107417458Y-109151499D01*
X107405584Y-109194187D01*
X107391661Y-109236160D01*
X107375722Y-109277347D01*
X107357804Y-109317678D01*
X107337940Y-109357080D01*
X107316166Y-109395482D01*
X107292518Y-109432813D01*
X107267029Y-109469001D01*
X107239735Y-109503975D01*
X107210670Y-109537664D01*
X107179869Y-109569996D01*
X107147367Y-109600901D01*
X107113200Y-109630305D01*
X107095768Y-109644216D01*
X107059729Y-109670823D01*
X107022358Y-109695614D01*
X106983765Y-109718536D01*
X106944056Y-109739536D01*
X106903340Y-109758565D01*
X106861724Y-109775568D01*
X106819317Y-109790493D01*
X106776227Y-109803288D01*
X106755444Y-109808631D01*
X106711825Y-109818128D01*
X106667721Y-109825443D01*
X106623268Y-109830576D01*
X106578600Y-109833520D01*
X106533852Y-109834277D01*
X106489160Y-109832840D01*
X106444659Y-109829210D01*
X106400484Y-109823380D01*
X106362787Y-109816594D01*
X106318377Y-109806492D01*
X106275010Y-109794398D01*
X106232639Y-109780290D01*
X106191223Y-109764149D01*
X106150716Y-109745953D01*
X106111074Y-109725678D01*
X106072253Y-109703308D01*
X106034209Y-109678816D01*
X105996897Y-109652185D01*
X105960274Y-109623391D01*
X105957871Y-109621406D01*
X105954253Y-109618283D01*
X105949359Y-109613871D01*
X105943409Y-109608382D01*
X105936623Y-109602029D01*
X105929220Y-109595023D01*
X105921419Y-109587577D01*
X105913440Y-109579903D01*
X105905503Y-109572215D01*
X105897827Y-109564723D01*
X105890633Y-109557641D01*
X105884139Y-109551179D01*
X105878565Y-109545551D01*
X105874131Y-109540968D01*
X105871057Y-109537645D01*
X105870272Y-109536733D01*
X105868497Y-109534637D01*
X105865571Y-109531229D01*
X105861842Y-109526911D01*
X105857657Y-109522087D01*
X105855734Y-109519876D01*
X105838819Y-109499629D01*
X106297694Y-109499629D01*
X106298148Y-109519304D01*
X106300789Y-109538881D01*
X106305637Y-109558208D01*
X106307741Y-109564558D01*
X106315348Y-109582914D01*
X106324819Y-109600241D01*
X106336004Y-109616322D01*
X106348753Y-109630941D01*
X106362881Y-109643854D01*
X106379553Y-109656036D01*
X106396924Y-109666056D01*
X106415032Y-109673933D01*
X106433915Y-109679685D01*
X106441274Y-109681312D01*
X106461793Y-109684288D01*
X106482047Y-109685006D01*
X106501990Y-109683476D01*
X106521575Y-109679705D01*
X106540755Y-109673704D01*
X106559484Y-109665480D01*
X106576883Y-109655574D01*
X106580420Y-109653251D01*
X106583668Y-109650908D01*
X106586961Y-109648257D01*
X106590633Y-109645008D01*
X106595017Y-109640869D01*
X106600447Y-109635549D01*
X106604295Y-109631722D01*
X106610440Y-109625548D01*
X106615231Y-109620619D01*
X106618956Y-109616602D01*
X106621906Y-109613167D01*
X106624367Y-109609982D01*
X106626631Y-109606716D01*
X106628120Y-109604415D01*
X106638454Y-109586122D01*
X106646593Y-109567326D01*
X106652521Y-109548096D01*
X106656228Y-109528502D01*
X106657699Y-109508614D01*
X106656921Y-109488505D01*
X106653882Y-109468242D01*
X106653625Y-109467015D01*
X106648441Y-109447923D01*
X106641248Y-109429724D01*
X106632179Y-109412546D01*
X106621366Y-109396523D01*
X106608940Y-109381783D01*
X106595033Y-109368457D01*
X106579778Y-109356676D01*
X106563304Y-109346569D01*
X106545745Y-109338267D01*
X106527231Y-109331901D01*
X106513935Y-109328699D01*
X106493596Y-109325760D01*
X106473403Y-109325081D01*
X106453445Y-109326643D01*
X106433808Y-109330432D01*
X106414583Y-109336428D01*
X106395857Y-109344614D01*
X106377718Y-109354976D01*
X106377705Y-109354984D01*
X106373967Y-109357465D01*
X106370557Y-109359946D01*
X106367119Y-109362738D01*
X106363298Y-109366146D01*
X106358738Y-109370482D01*
X106353083Y-109376053D01*
X106350852Y-109378279D01*
X106344792Y-109384386D01*
X106340071Y-109389277D01*
X106336383Y-109393309D01*
X106333416Y-109396838D01*
X106330864Y-109400217D01*
X106328418Y-109403804D01*
X106327557Y-109405132D01*
X106317363Y-109423004D01*
X106309260Y-109441543D01*
X106303268Y-109460595D01*
X106299407Y-109480008D01*
X106297694Y-109499629D01*
X105838819Y-109499629D01*
X105836994Y-109497445D01*
X105818303Y-109473306D01*
X105800020Y-109447983D01*
X105782508Y-109422004D01*
X105766130Y-109395894D01*
X105751250Y-109370179D01*
X105746362Y-109361180D01*
X105743302Y-109355453D01*
X105740469Y-109350166D01*
X105738104Y-109345771D01*
X105736450Y-109342717D01*
X105735979Y-109341857D01*
X105734862Y-109339692D01*
X105732975Y-109335870D01*
X105730514Y-109330794D01*
X105727675Y-109324869D01*
X105724933Y-109319092D01*
X105706596Y-109277820D01*
X105690459Y-109236296D01*
X105676493Y-109194388D01*
X105664663Y-109151967D01*
X105654934Y-109108899D01*
X105647272Y-109065056D01*
X105641644Y-109020307D01*
X105638790Y-108986840D01*
X105638334Y-108978412D01*
X105637979Y-108968158D01*
X105637726Y-108956529D01*
X105637702Y-108954592D01*
X105830450Y-108954592D01*
X105831910Y-108974609D01*
X105835522Y-108993987D01*
X105841308Y-109012791D01*
X105849292Y-109031090D01*
X105859496Y-109048953D01*
X105864114Y-109055862D01*
X105867776Y-109060548D01*
X105872849Y-109066246D01*
X105878939Y-109072576D01*
X105885651Y-109079166D01*
X105892589Y-109085638D01*
X105899360Y-109091617D01*
X105905567Y-109096728D01*
X105910815Y-109100594D01*
X105911847Y-109101268D01*
X105929580Y-109111205D01*
X105948070Y-109119073D01*
X105967144Y-109124847D01*
X105986627Y-109128504D01*
X106006347Y-109130022D01*
X106026129Y-109129377D01*
X106045802Y-109126546D01*
X106064510Y-109121722D01*
X106081461Y-109115371D01*
X106085817Y-109113244D01*
X106098315Y-109107140D01*
X106109562Y-109100512D01*
X106113239Y-109098117D01*
X106116510Y-109095798D01*
X106119718Y-109093257D01*
X106123212Y-109090192D01*
X106127337Y-109086306D01*
X106132436Y-109081298D01*
X106137027Y-109076708D01*
X106143151Y-109070515D01*
X106147933Y-109065549D01*
X106151675Y-109061461D01*
X106154678Y-109057903D01*
X106157245Y-109054527D01*
X106159678Y-109050984D01*
X106160721Y-109049382D01*
X106170933Y-109031524D01*
X106178936Y-109013135D01*
X106184745Y-108994157D01*
X106188379Y-108974532D01*
X106189853Y-108954202D01*
X106189891Y-108949985D01*
X106188802Y-108929350D01*
X106185602Y-108909570D01*
X106183866Y-108903381D01*
X106391695Y-108903381D01*
X106393152Y-108923307D01*
X106396801Y-108942906D01*
X106402616Y-108962034D01*
X106410567Y-108980547D01*
X106420630Y-108998302D01*
X106421638Y-108999857D01*
X106430790Y-109012287D01*
X106441791Y-109024584D01*
X106454234Y-109036317D01*
X106463176Y-109043650D01*
X106479180Y-109054647D01*
X106496018Y-109063625D01*
X106513525Y-109070611D01*
X106531537Y-109075628D01*
X106549885Y-109078705D01*
X106568405Y-109079867D01*
X106586930Y-109079138D01*
X106605294Y-109076547D01*
X106623331Y-109072116D01*
X106640875Y-109065874D01*
X106657759Y-109057846D01*
X106673819Y-109048057D01*
X106688886Y-109036534D01*
X106702797Y-109023302D01*
X106715384Y-109008387D01*
X106718671Y-109003881D01*
X106729257Y-108986960D01*
X106737807Y-108969197D01*
X106744313Y-108950769D01*
X106748769Y-108931856D01*
X106751168Y-108912636D01*
X106751501Y-108893287D01*
X106750438Y-108881474D01*
X106915929Y-108881474D01*
X106916404Y-108901172D01*
X106919071Y-108920784D01*
X106923951Y-108940161D01*
X106925989Y-108946310D01*
X106933759Y-108965143D01*
X106943353Y-108982685D01*
X106954709Y-108998848D01*
X106967766Y-109013543D01*
X106981126Y-109025609D01*
X106997754Y-109037773D01*
X107015046Y-109047775D01*
X107033085Y-109055657D01*
X107051954Y-109061457D01*
X107057833Y-109062807D01*
X107078035Y-109065962D01*
X107098144Y-109066857D01*
X107118065Y-109065511D01*
X107137703Y-109061940D01*
X107156962Y-109056164D01*
X107175749Y-109048198D01*
X107193969Y-109038060D01*
X107195129Y-109037329D01*
X107198666Y-109035006D01*
X107201914Y-109032663D01*
X107205207Y-109030012D01*
X107208879Y-109026763D01*
X107213263Y-109022623D01*
X107218692Y-109017304D01*
X107222541Y-109013477D01*
X107228685Y-109007303D01*
X107233476Y-109002373D01*
X107237201Y-108998357D01*
X107240151Y-108994922D01*
X107242612Y-108991736D01*
X107244877Y-108988471D01*
X107246365Y-108986169D01*
X107256693Y-108967891D01*
X107264828Y-108949108D01*
X107270754Y-108929897D01*
X107274459Y-108910326D01*
X107275929Y-108890469D01*
X107275151Y-108870398D01*
X107272121Y-108850233D01*
X107267019Y-108830929D01*
X107259916Y-108812553D01*
X107250939Y-108795230D01*
X107240211Y-108779082D01*
X107227857Y-108764235D01*
X107214002Y-108750812D01*
X107198770Y-108738936D01*
X107182287Y-108728733D01*
X107164676Y-108720325D01*
X107146063Y-108713838D01*
X107131336Y-108710270D01*
X107111199Y-108707421D01*
X107091128Y-108706827D01*
X107071236Y-108708466D01*
X107051634Y-108712315D01*
X107032433Y-108718353D01*
X107013746Y-108726559D01*
X106995951Y-108736738D01*
X106992213Y-108739219D01*
X106988802Y-108741701D01*
X106985365Y-108744491D01*
X106981543Y-108747900D01*
X106976984Y-108752236D01*
X106971329Y-108757808D01*
X106969097Y-108760034D01*
X106963037Y-108766140D01*
X106958317Y-108771032D01*
X106954628Y-108775064D01*
X106951661Y-108778592D01*
X106949109Y-108781972D01*
X106946664Y-108785559D01*
X106945802Y-108786887D01*
X106935590Y-108804789D01*
X106927478Y-108823347D01*
X106921485Y-108842413D01*
X106917628Y-108861839D01*
X106915929Y-108881474D01*
X106750438Y-108881474D01*
X106749764Y-108873990D01*
X106745948Y-108854922D01*
X106740046Y-108836262D01*
X106732052Y-108818189D01*
X106726340Y-108807855D01*
X106715355Y-108791578D01*
X106702676Y-108776605D01*
X106688499Y-108763087D01*
X106673023Y-108751174D01*
X106656446Y-108741015D01*
X106638965Y-108732763D01*
X106620781Y-108726565D01*
X106618320Y-108725904D01*
X106603277Y-108722785D01*
X106587190Y-108720878D01*
X106570771Y-108720212D01*
X106554732Y-108720814D01*
X106539783Y-108722710D01*
X106538775Y-108722896D01*
X106519188Y-108727705D01*
X106500547Y-108734506D01*
X106482970Y-108743180D01*
X106466574Y-108753614D01*
X106451479Y-108765691D01*
X106437804Y-108779292D01*
X106425667Y-108794306D01*
X106415187Y-108810613D01*
X106406482Y-108828098D01*
X106399671Y-108846646D01*
X106395469Y-108863114D01*
X106392458Y-108883268D01*
X106391695Y-108903381D01*
X106183866Y-108903381D01*
X106180293Y-108890647D01*
X106172875Y-108872581D01*
X106163348Y-108855375D01*
X106151714Y-108839029D01*
X106142774Y-108828597D01*
X106128385Y-108814548D01*
X106112879Y-108802398D01*
X106096415Y-108792161D01*
X106079154Y-108783849D01*
X106061253Y-108777475D01*
X106042871Y-108773054D01*
X106024168Y-108770597D01*
X106005304Y-108770118D01*
X105986436Y-108771630D01*
X105967724Y-108775146D01*
X105949325Y-108780679D01*
X105931401Y-108788242D01*
X105914110Y-108797848D01*
X105898844Y-108808541D01*
X105892087Y-108814271D01*
X105884714Y-108821326D01*
X105877239Y-108829151D01*
X105870176Y-108837190D01*
X105864039Y-108844886D01*
X105860199Y-108850339D01*
X105849912Y-108868007D01*
X105841837Y-108886083D01*
X105835937Y-108904701D01*
X105832172Y-108923994D01*
X105830506Y-108944097D01*
X105830450Y-108954592D01*
X105637702Y-108954592D01*
X105637573Y-108943975D01*
X105637522Y-108930946D01*
X105637572Y-108917892D01*
X105637723Y-108905261D01*
X105637974Y-108893504D01*
X105638326Y-108883072D01*
X105638778Y-108874413D01*
X105638811Y-108873929D01*
X105643049Y-108827993D01*
X105649455Y-108782674D01*
X105658008Y-108738021D01*
X105668690Y-108694086D01*
X105681482Y-108650916D01*
X105690015Y-108626627D01*
X105696363Y-108608561D01*
X105713314Y-108567072D01*
X105732317Y-108526495D01*
X105753352Y-108486883D01*
X105776398Y-108448283D01*
X105801438Y-108410746D01*
X105828451Y-108374320D01*
X105841247Y-108358300D01*
X105863550Y-108332169D01*
X105887611Y-108306128D01*
X105901978Y-108291688D01*
X106485679Y-108291688D01*
X106486444Y-108312031D01*
X106489431Y-108331943D01*
X106494605Y-108351315D01*
X106501935Y-108370038D01*
X106511384Y-108388002D01*
X106518158Y-108398513D01*
X106523496Y-108405495D01*
X106530231Y-108413179D01*
X106537909Y-108421130D01*
X106546073Y-108428911D01*
X106554269Y-108436088D01*
X106562042Y-108442227D01*
X106568401Y-108446566D01*
X106585204Y-108455973D01*
X106601757Y-108463309D01*
X106618454Y-108468685D01*
X106635689Y-108472216D01*
X106653858Y-108474012D01*
X106665548Y-108474304D01*
X106682724Y-108473660D01*
X106683325Y-108473638D01*
X106699766Y-108471555D01*
X106715409Y-108467933D01*
X106730793Y-108462646D01*
X106746076Y-108455764D01*
X106763413Y-108445863D01*
X106779424Y-108434180D01*
X106793995Y-108420860D01*
X106807007Y-108406050D01*
X106818346Y-108389898D01*
X106827893Y-108372548D01*
X106835532Y-108354148D01*
X106840731Y-108336606D01*
X106843446Y-108322208D01*
X106845007Y-108306638D01*
X106845378Y-108290709D01*
X106844526Y-108275233D01*
X106843634Y-108267934D01*
X106839644Y-108248574D01*
X106833567Y-108229931D01*
X106825521Y-108212150D01*
X106815622Y-108195384D01*
X106803990Y-108179781D01*
X106790743Y-108165490D01*
X106775998Y-108152661D01*
X106759873Y-108141443D01*
X106742486Y-108131983D01*
X106732807Y-108127737D01*
X106718342Y-108122544D01*
X106704068Y-108118811D01*
X106689356Y-108116425D01*
X106673579Y-108115268D01*
X106664725Y-108115113D01*
X106644812Y-108116122D01*
X106625630Y-108119217D01*
X106607031Y-108124442D01*
X106588871Y-108131841D01*
X106571002Y-108141457D01*
X106565607Y-108144826D01*
X106559614Y-108149123D01*
X106552738Y-108154768D01*
X106545387Y-108161357D01*
X106537973Y-108168488D01*
X106530904Y-108175758D01*
X106524591Y-108182764D01*
X106519443Y-108189102D01*
X106516892Y-108192711D01*
X106506463Y-108210402D01*
X106498230Y-108228109D01*
X106492119Y-108246064D01*
X106488059Y-108264494D01*
X106485976Y-108283629D01*
X106485679Y-108291688D01*
X105901978Y-108291688D01*
X105912951Y-108280659D01*
X105926507Y-108267996D01*
X105939086Y-108256246D01*
X105965534Y-108233370D01*
X105969246Y-108230307D01*
X106000521Y-108205900D01*
X106033539Y-108182494D01*
X106067885Y-108160351D01*
X106103148Y-108139740D01*
X106138033Y-108121366D01*
X106178822Y-108102303D01*
X106220333Y-108085373D01*
X106262484Y-108070579D01*
X106305190Y-108057924D01*
X106348366Y-108047411D01*
X106391928Y-108039044D01*
X106406468Y-108036983D01*
X106435794Y-108032826D01*
X106479878Y-108028760D01*
X106524095Y-108026850D01*
X106568364Y-108027100D01*
G37*
G36*
X73927465Y-73304346D02*
G01*
X73928271Y-73307838D01*
X73929312Y-73312624D01*
X73930382Y-73317761D01*
X73930549Y-73318585D01*
X73931861Y-73324763D01*
X73933660Y-73332749D01*
X73935850Y-73342149D01*
X73938334Y-73352572D01*
X73941018Y-73363622D01*
X73943806Y-73374909D01*
X73946600Y-73386039D01*
X73949307Y-73396617D01*
X73951829Y-73406252D01*
X73952962Y-73410484D01*
X73970177Y-73470184D01*
X73989217Y-73528523D01*
X74010081Y-73585501D01*
X74032768Y-73641116D01*
X74057278Y-73695369D01*
X74083613Y-73748258D01*
X74111770Y-73799785D01*
X74141749Y-73849946D01*
X74173551Y-73898744D01*
X74207175Y-73946177D01*
X74242619Y-73992243D01*
X74279887Y-74036944D01*
X74318973Y-74080277D01*
X74359882Y-74122245D01*
X74402609Y-74162844D01*
X74447158Y-74202075D01*
X74461508Y-74214100D01*
X74508364Y-74251502D01*
X74557108Y-74287667D01*
X74607742Y-74322593D01*
X74660270Y-74356284D01*
X74714696Y-74388743D01*
X74771024Y-74419970D01*
X74829258Y-74449969D01*
X74889401Y-74478741D01*
X74951459Y-74506290D01*
X75015433Y-74532616D01*
X75050950Y-74546390D01*
X75067377Y-74552533D01*
X75085539Y-74559152D01*
X75104984Y-74566093D01*
X75125263Y-74573202D01*
X75145921Y-74580322D01*
X75166507Y-74587300D01*
X75186572Y-74593978D01*
X75205661Y-74600204D01*
X75223323Y-74605820D01*
X75229584Y-74607768D01*
X75246282Y-74612925D01*
X75254669Y-74639838D01*
X75276520Y-74707163D01*
X75299603Y-74772888D01*
X75323898Y-74836969D01*
X75349382Y-74899359D01*
X75376036Y-74960011D01*
X75403837Y-75018882D01*
X75432765Y-75075924D01*
X75462799Y-75131091D01*
X75493915Y-75184338D01*
X75526096Y-75235618D01*
X75537792Y-75253373D01*
X75572942Y-75304131D01*
X75609420Y-75353043D01*
X75647222Y-75400108D01*
X75686348Y-75445326D01*
X75726793Y-75488693D01*
X75768559Y-75530207D01*
X75811640Y-75569867D01*
X75856037Y-75607670D01*
X75901746Y-75643616D01*
X75948766Y-75677701D01*
X75997095Y-75709925D01*
X76046730Y-75740285D01*
X76093666Y-75766632D01*
X76142431Y-75791705D01*
X76192862Y-75815362D01*
X76244797Y-75837547D01*
X76298076Y-75858199D01*
X76352535Y-75877263D01*
X76408013Y-75894682D01*
X76464350Y-75910398D01*
X76521385Y-75924354D01*
X76563878Y-75933501D01*
X76567558Y-75934248D01*
X76153884Y-76347903D01*
X76121409Y-76380375D01*
X76090498Y-76411283D01*
X76061104Y-76440672D01*
X76033179Y-76468588D01*
X76006678Y-76495076D01*
X75981555Y-76520182D01*
X75957763Y-76543953D01*
X75935255Y-76566433D01*
X75913986Y-76587668D01*
X75893907Y-76607705D01*
X75874973Y-76626588D01*
X75857137Y-76644364D01*
X75840354Y-76661078D01*
X75824576Y-76676775D01*
X75809757Y-76691503D01*
X75795851Y-76705305D01*
X75782810Y-76718230D01*
X75770590Y-76730320D01*
X75759142Y-76741624D01*
X75748422Y-76752184D01*
X75738381Y-76762050D01*
X75728973Y-76771264D01*
X75720153Y-76779874D01*
X75711874Y-76787926D01*
X75704089Y-76795463D01*
X75696751Y-76802534D01*
X75689814Y-76809182D01*
X75683233Y-76815455D01*
X75676961Y-76821396D01*
X75670949Y-76827053D01*
X75665153Y-76832471D01*
X75659526Y-76837697D01*
X75654022Y-76842774D01*
X75648593Y-76847749D01*
X75643194Y-76852668D01*
X75637778Y-76857577D01*
X75632298Y-76862522D01*
X75626708Y-76867547D01*
X75620962Y-76872699D01*
X75615012Y-76878023D01*
X75613397Y-76879468D01*
X75547120Y-76937453D01*
X75478727Y-76994783D01*
X75408298Y-77051410D01*
X75335914Y-77107286D01*
X75261653Y-77162366D01*
X75185592Y-77216601D01*
X75107813Y-77269945D01*
X75028395Y-77322351D01*
X74947415Y-77373771D01*
X74864955Y-77424158D01*
X74781092Y-77473464D01*
X74695907Y-77521644D01*
X74609478Y-77568648D01*
X74521885Y-77614431D01*
X74433206Y-77658945D01*
X74343521Y-77702143D01*
X74252908Y-77743979D01*
X74161449Y-77784403D01*
X74069221Y-77823370D01*
X73976305Y-77860833D01*
X73945453Y-77872877D01*
X73856901Y-77906356D01*
X73768373Y-77938216D01*
X73679940Y-77968438D01*
X73591679Y-77997007D01*
X73503667Y-78023905D01*
X73415977Y-78049113D01*
X73328685Y-78072616D01*
X73241867Y-78094397D01*
X73155598Y-78114436D01*
X73069952Y-78132718D01*
X72985007Y-78149225D01*
X72900837Y-78163941D01*
X72817518Y-78176846D01*
X72735123Y-78187925D01*
X72653729Y-78197160D01*
X72573413Y-78204533D01*
X72494248Y-78210028D01*
X72467929Y-78211450D01*
X72449037Y-78212303D01*
X72428666Y-78213054D01*
X72407129Y-78213700D01*
X72384742Y-78214238D01*
X72361821Y-78214666D01*
X72338681Y-78214980D01*
X72315637Y-78215178D01*
X72293005Y-78215257D01*
X72271100Y-78215214D01*
X72250238Y-78215047D01*
X72230736Y-78214752D01*
X72212905Y-78214328D01*
X72198554Y-78213831D01*
X72142798Y-78211084D01*
X72088921Y-78207458D01*
X72036687Y-78202924D01*
X71985863Y-78197452D01*
X71936215Y-78191009D01*
X71887507Y-78183566D01*
X71839504Y-78175094D01*
X71791973Y-78165560D01*
X71744678Y-78154933D01*
X71741758Y-78154240D01*
X71734439Y-78152490D01*
X71727752Y-78150875D01*
X71722054Y-78149485D01*
X71717704Y-78148406D01*
X71715059Y-78147727D01*
X71714539Y-78147581D01*
X71713751Y-78147109D01*
X71712994Y-78146047D01*
X71712206Y-78144154D01*
X71711321Y-78141194D01*
X71710276Y-78136926D01*
X71709007Y-78131111D01*
X71707448Y-78123512D01*
X71705737Y-78114911D01*
X71694417Y-78052518D01*
X71684767Y-77988589D01*
X71676786Y-77923136D01*
X71670475Y-77856174D01*
X71665836Y-77787714D01*
X71662868Y-77717770D01*
X71661573Y-77646355D01*
X71661950Y-77573483D01*
X71664000Y-77499165D01*
X71667724Y-77423417D01*
X71670453Y-77383114D01*
X72036282Y-77383114D01*
X72037242Y-77443373D01*
X72039028Y-77490544D01*
X72041629Y-77535941D01*
X72045079Y-77579926D01*
X72049408Y-77622861D01*
X72054650Y-77665110D01*
X72059977Y-77701585D01*
X72061023Y-77708083D01*
X72062289Y-77715614D01*
X72063721Y-77723887D01*
X72065265Y-77732615D01*
X72066866Y-77741506D01*
X72068472Y-77750271D01*
X72070030Y-77758622D01*
X72071485Y-77766269D01*
X72072784Y-77772920D01*
X72073871Y-77778289D01*
X72074696Y-77782084D01*
X72075203Y-77784017D01*
X72075289Y-77784194D01*
X72076475Y-77784586D01*
X72079477Y-77785404D01*
X72083897Y-77786541D01*
X72089336Y-77787896D01*
X72092001Y-77788547D01*
X72101041Y-77790665D01*
X72111866Y-77793075D01*
X72124017Y-77795686D01*
X72137037Y-77798403D01*
X72150466Y-77801135D01*
X72163845Y-77803788D01*
X72176715Y-77806271D01*
X72188618Y-77808489D01*
X72199095Y-77810348D01*
X72202589Y-77810939D01*
X72260018Y-77819517D01*
X72318922Y-77826409D01*
X72379245Y-77831612D01*
X72440930Y-77835123D01*
X72503921Y-77836940D01*
X72568161Y-77837062D01*
X72633594Y-77835485D01*
X72700164Y-77832208D01*
X72713243Y-77831374D01*
X72785245Y-77825682D01*
X72858367Y-77818080D01*
X72932525Y-77808587D01*
X73007632Y-77797224D01*
X73083601Y-77784012D01*
X73160349Y-77768970D01*
X73237787Y-77752119D01*
X73315833Y-77733479D01*
X73394398Y-77713070D01*
X73473397Y-77690914D01*
X73552745Y-77667030D01*
X73632356Y-77641437D01*
X73712144Y-77614158D01*
X73792023Y-77585212D01*
X73856292Y-77560730D01*
X73941206Y-77526741D01*
X74025438Y-77491164D01*
X74108890Y-77454053D01*
X74191464Y-77415463D01*
X74273064Y-77375451D01*
X74353593Y-77334075D01*
X74432951Y-77291388D01*
X74511045Y-77247450D01*
X74587774Y-77202312D01*
X74663044Y-77156033D01*
X74736755Y-77108669D01*
X74808812Y-77060277D01*
X74879117Y-77010911D01*
X74947572Y-76960627D01*
X75014080Y-76909483D01*
X75078545Y-76857534D01*
X75086103Y-76851278D01*
X75100090Y-76839611D01*
X75113806Y-76828044D01*
X75127493Y-76816368D01*
X75141389Y-76804374D01*
X75155736Y-76791853D01*
X75170774Y-76778592D01*
X75186745Y-76764384D01*
X75203888Y-76749018D01*
X75221943Y-76732737D01*
X75224269Y-76730582D01*
X75227637Y-76727377D01*
X75232072Y-76723098D01*
X75237601Y-76717719D01*
X75244251Y-76711214D01*
X75252045Y-76703557D01*
X75261009Y-76694724D01*
X75271171Y-76684688D01*
X75282554Y-76673424D01*
X75295186Y-76660907D01*
X75309092Y-76647110D01*
X75324298Y-76632007D01*
X75340828Y-76615575D01*
X75358709Y-76597787D01*
X75377968Y-76578617D01*
X75398629Y-76558040D01*
X75420719Y-76536030D01*
X75444262Y-76512563D01*
X75469286Y-76487610D01*
X75495814Y-76461150D01*
X75523875Y-76433154D01*
X75553492Y-76403596D01*
X75584536Y-76372610D01*
X75927680Y-76030065D01*
X75923960Y-76029295D01*
X75893968Y-76022606D01*
X75862601Y-76014686D01*
X75830297Y-76005676D01*
X75797500Y-75995717D01*
X75764652Y-75984950D01*
X75732192Y-75973513D01*
X75700564Y-75961546D01*
X75670209Y-75949191D01*
X75666336Y-75947546D01*
X75618104Y-75925720D01*
X75571021Y-75901945D01*
X75525132Y-75876248D01*
X75480479Y-75848653D01*
X75437105Y-75819186D01*
X75395053Y-75787874D01*
X75380824Y-75776619D01*
X75352393Y-75752943D01*
X75323776Y-75727487D01*
X75295399Y-75700669D01*
X75267687Y-75672902D01*
X75241065Y-75644603D01*
X75215960Y-75616187D01*
X75213403Y-75613182D01*
X75180238Y-75572495D01*
X75148327Y-75530133D01*
X75117648Y-75486059D01*
X75088182Y-75440237D01*
X75059905Y-75392627D01*
X75032796Y-75343193D01*
X75006833Y-75291898D01*
X74981998Y-75238703D01*
X74958267Y-75183571D01*
X74935617Y-75126464D01*
X74933998Y-75122196D01*
X74928538Y-75107543D01*
X74922730Y-75091555D01*
X74916758Y-75074766D01*
X74910808Y-75057707D01*
X74905064Y-75040914D01*
X74899711Y-75024919D01*
X74894936Y-75010254D01*
X74892958Y-75004022D01*
X74883958Y-74975365D01*
X74866066Y-74969734D01*
X74805042Y-74949664D01*
X74745808Y-74928431D01*
X74688385Y-74906046D01*
X74632797Y-74882520D01*
X74579067Y-74857866D01*
X74527218Y-74832094D01*
X74477274Y-74805215D01*
X74429257Y-74777243D01*
X74383189Y-74748187D01*
X74339094Y-74718060D01*
X74296997Y-74686873D01*
X74292382Y-74683295D01*
X74278265Y-74672226D01*
X74265481Y-74662024D01*
X74253720Y-74652416D01*
X74242673Y-74643126D01*
X74232031Y-74633882D01*
X74221486Y-74624407D01*
X74210725Y-74614429D01*
X74199443Y-74603671D01*
X74187329Y-74591860D01*
X74174073Y-74578721D01*
X74170093Y-74574745D01*
X74158194Y-74562797D01*
X74147701Y-74552148D01*
X74138366Y-74542528D01*
X74129945Y-74533666D01*
X74122192Y-74525294D01*
X74114862Y-74517140D01*
X74107710Y-74508933D01*
X74100490Y-74500405D01*
X74092957Y-74491284D01*
X74084867Y-74481301D01*
X74081980Y-74477707D01*
X74050270Y-74436366D01*
X74020433Y-74393801D01*
X73992435Y-74349960D01*
X73966245Y-74304787D01*
X73941832Y-74258229D01*
X73919165Y-74210234D01*
X73908545Y-74185848D01*
X73896048Y-74155052D01*
X73883864Y-74122499D01*
X73872158Y-74088706D01*
X73861093Y-74054187D01*
X73850832Y-74019456D01*
X73841538Y-73985030D01*
X73833376Y-73951423D01*
X73831397Y-73942603D01*
X73829073Y-73932046D01*
X73515513Y-74245117D01*
X73486573Y-74274013D01*
X73459195Y-74301356D01*
X73433326Y-74327195D01*
X73408917Y-74351584D01*
X73385914Y-74374577D01*
X73364265Y-74396222D01*
X73343921Y-74416574D01*
X73324829Y-74435687D01*
X73306937Y-74453609D01*
X73290194Y-74470395D01*
X73274548Y-74486097D01*
X73259949Y-74500767D01*
X73246343Y-74514457D01*
X73233680Y-74527220D01*
X73221907Y-74539108D01*
X73210975Y-74550172D01*
X73200830Y-74560465D01*
X73191421Y-74570041D01*
X73182697Y-74578949D01*
X73174606Y-74587245D01*
X73167096Y-74594977D01*
X73160117Y-74602202D01*
X73153615Y-74608968D01*
X73147541Y-74615329D01*
X73141841Y-74621338D01*
X73136466Y-74627048D01*
X73131362Y-74632508D01*
X73126479Y-74637773D01*
X73121764Y-74642894D01*
X73117167Y-74647923D01*
X73112636Y-74652914D01*
X73108521Y-74657470D01*
X73058213Y-74714742D01*
X73008545Y-74774145D01*
X72959559Y-74835616D01*
X72911294Y-74899091D01*
X72863790Y-74964504D01*
X72817089Y-75031793D01*
X72771229Y-75100893D01*
X72726252Y-75171740D01*
X72682198Y-75244270D01*
X72639107Y-75318417D01*
X72597019Y-75394118D01*
X72555974Y-75471310D01*
X72516014Y-75549926D01*
X72477179Y-75629904D01*
X72439508Y-75711179D01*
X72420210Y-75754345D01*
X72387227Y-75830767D01*
X72355601Y-75907495D01*
X72325352Y-75984449D01*
X72296497Y-76061550D01*
X72269056Y-76138717D01*
X72243045Y-76215870D01*
X72218484Y-76292928D01*
X72195389Y-76369814D01*
X72173780Y-76446445D01*
X72153674Y-76522741D01*
X72135090Y-76598624D01*
X72118046Y-76674013D01*
X72102559Y-76748827D01*
X72088648Y-76822987D01*
X72076333Y-76896414D01*
X72065628Y-76969026D01*
X72056556Y-77040743D01*
X72049132Y-77111486D01*
X72043374Y-77181175D01*
X72039301Y-77249729D01*
X72036931Y-77317070D01*
X72036282Y-77383114D01*
X71670453Y-77383114D01*
X71671787Y-77363406D01*
X71679208Y-77277821D01*
X71688586Y-77191215D01*
X71699892Y-77103676D01*
X71713094Y-77015294D01*
X71728162Y-76926156D01*
X71745066Y-76836354D01*
X71763775Y-76745975D01*
X71784259Y-76655109D01*
X71806487Y-76563844D01*
X71830430Y-76472270D01*
X71856056Y-76380475D01*
X71883336Y-76288548D01*
X71912239Y-76196581D01*
X71942734Y-76104659D01*
X71974792Y-76012873D01*
X72008382Y-75921312D01*
X72043472Y-75830065D01*
X72080034Y-75739220D01*
X72118037Y-75648868D01*
X72157449Y-75559096D01*
X72198243Y-75469994D01*
X72240385Y-75381651D01*
X72283846Y-75294155D01*
X72328597Y-75207598D01*
X72374604Y-75122065D01*
X72421841Y-75037648D01*
X72470275Y-74954435D01*
X72519876Y-74872515D01*
X72524726Y-74864677D01*
X72568800Y-74794828D01*
X72613706Y-74726109D01*
X72659333Y-74658674D01*
X72705571Y-74592677D01*
X72752308Y-74528272D01*
X72799433Y-74465612D01*
X72846839Y-74404853D01*
X72894411Y-74346147D01*
X72915873Y-74320406D01*
X72920583Y-74314808D01*
X72926331Y-74307976D01*
X72932689Y-74300417D01*
X72939231Y-74292640D01*
X72945530Y-74285151D01*
X72947871Y-74282368D01*
X72966627Y-74260069D01*
X73097306Y-74129262D01*
X73446448Y-73779777D01*
X73926270Y-73299485D01*
X73927465Y-73304346D01*
G37*
G36*
X73762145Y-75220881D02*
G01*
X73806379Y-75223293D01*
X73850495Y-75227869D01*
X73894410Y-75234616D01*
X73938039Y-75243535D01*
X73981297Y-75254630D01*
X74024101Y-75267903D01*
X74066367Y-75283359D01*
X74072464Y-75285789D01*
X74113864Y-75303682D01*
X74154235Y-75323581D01*
X74193504Y-75345428D01*
X74231596Y-75369165D01*
X74268439Y-75394737D01*
X74303959Y-75422087D01*
X74338084Y-75451156D01*
X74370739Y-75481888D01*
X74401851Y-75514227D01*
X74431349Y-75548114D01*
X74459157Y-75583495D01*
X74464209Y-75590335D01*
X74490011Y-75627526D01*
X74513841Y-75665817D01*
X74535672Y-75705131D01*
X74555480Y-75745389D01*
X74573241Y-75786514D01*
X74588928Y-75828430D01*
X74602516Y-75871058D01*
X74613980Y-75914320D01*
X74623293Y-75958140D01*
X74630433Y-76002440D01*
X74635371Y-76047143D01*
X74638084Y-76092169D01*
X74638645Y-76123622D01*
X74637542Y-76168812D01*
X74634215Y-76213645D01*
X74628699Y-76258047D01*
X74621029Y-76301949D01*
X74611239Y-76345280D01*
X74599365Y-76387968D01*
X74585442Y-76429941D01*
X74569503Y-76471128D01*
X74551585Y-76511459D01*
X74531721Y-76550861D01*
X74509947Y-76589263D01*
X74486299Y-76626594D01*
X74460810Y-76662782D01*
X74433516Y-76697756D01*
X74404451Y-76731445D01*
X74373650Y-76763777D01*
X74341148Y-76794682D01*
X74306981Y-76824086D01*
X74289549Y-76837997D01*
X74253510Y-76864604D01*
X74216139Y-76889395D01*
X74177546Y-76912317D01*
X74137837Y-76933317D01*
X74097121Y-76952346D01*
X74055505Y-76969349D01*
X74013098Y-76984274D01*
X73970008Y-76997069D01*
X73949225Y-77002412D01*
X73905606Y-77011909D01*
X73861502Y-77019224D01*
X73817049Y-77024357D01*
X73772381Y-77027301D01*
X73727633Y-77028058D01*
X73682941Y-77026621D01*
X73638440Y-77022991D01*
X73594265Y-77017161D01*
X73556568Y-77010375D01*
X73512158Y-77000273D01*
X73468791Y-76988179D01*
X73426420Y-76974071D01*
X73385004Y-76957930D01*
X73344497Y-76939734D01*
X73304855Y-76919459D01*
X73266034Y-76897089D01*
X73227990Y-76872597D01*
X73190678Y-76845966D01*
X73154055Y-76817172D01*
X73151652Y-76815187D01*
X73148034Y-76812064D01*
X73143140Y-76807652D01*
X73137190Y-76802163D01*
X73130404Y-76795810D01*
X73123001Y-76788804D01*
X73115200Y-76781358D01*
X73107221Y-76773684D01*
X73099284Y-76765996D01*
X73091608Y-76758504D01*
X73084414Y-76751422D01*
X73077920Y-76744960D01*
X73072346Y-76739332D01*
X73067912Y-76734749D01*
X73064838Y-76731426D01*
X73064053Y-76730514D01*
X73062278Y-76728418D01*
X73059352Y-76725010D01*
X73055623Y-76720692D01*
X73051438Y-76715868D01*
X73049515Y-76713657D01*
X73032600Y-76693410D01*
X73491475Y-76693410D01*
X73491929Y-76713085D01*
X73494570Y-76732662D01*
X73499418Y-76751989D01*
X73501522Y-76758339D01*
X73509129Y-76776695D01*
X73518600Y-76794022D01*
X73529785Y-76810103D01*
X73542534Y-76824722D01*
X73556662Y-76837635D01*
X73573334Y-76849817D01*
X73590705Y-76859837D01*
X73608813Y-76867714D01*
X73627696Y-76873466D01*
X73635055Y-76875093D01*
X73655574Y-76878069D01*
X73675828Y-76878787D01*
X73695771Y-76877257D01*
X73715356Y-76873486D01*
X73734536Y-76867485D01*
X73753265Y-76859261D01*
X73770664Y-76849355D01*
X73774201Y-76847032D01*
X73777449Y-76844689D01*
X73780742Y-76842038D01*
X73784414Y-76838789D01*
X73788798Y-76834650D01*
X73794228Y-76829330D01*
X73798076Y-76825503D01*
X73804221Y-76819329D01*
X73809012Y-76814400D01*
X73812737Y-76810383D01*
X73815687Y-76806948D01*
X73818148Y-76803763D01*
X73820412Y-76800497D01*
X73821901Y-76798196D01*
X73832235Y-76779903D01*
X73840374Y-76761107D01*
X73846302Y-76741877D01*
X73850009Y-76722283D01*
X73851480Y-76702395D01*
X73850702Y-76682286D01*
X73847663Y-76662023D01*
X73847406Y-76660796D01*
X73842222Y-76641704D01*
X73835029Y-76623505D01*
X73825960Y-76606327D01*
X73815147Y-76590304D01*
X73802721Y-76575564D01*
X73788814Y-76562238D01*
X73773559Y-76550457D01*
X73757085Y-76540350D01*
X73739526Y-76532048D01*
X73721012Y-76525682D01*
X73707716Y-76522480D01*
X73687377Y-76519541D01*
X73667184Y-76518862D01*
X73647226Y-76520424D01*
X73627589Y-76524213D01*
X73608364Y-76530209D01*
X73589638Y-76538395D01*
X73571499Y-76548757D01*
X73571486Y-76548765D01*
X73567748Y-76551246D01*
X73564338Y-76553727D01*
X73560900Y-76556519D01*
X73557079Y-76559927D01*
X73552519Y-76564263D01*
X73546864Y-76569834D01*
X73544633Y-76572060D01*
X73538573Y-76578167D01*
X73533852Y-76583058D01*
X73530164Y-76587090D01*
X73527197Y-76590619D01*
X73524645Y-76593998D01*
X73522199Y-76597585D01*
X73521338Y-76598913D01*
X73511144Y-76616785D01*
X73503041Y-76635324D01*
X73497049Y-76654376D01*
X73493188Y-76673789D01*
X73491475Y-76693410D01*
X73032600Y-76693410D01*
X73030775Y-76691226D01*
X73012084Y-76667087D01*
X72993801Y-76641764D01*
X72976289Y-76615785D01*
X72959911Y-76589675D01*
X72945031Y-76563960D01*
X72940143Y-76554961D01*
X72937083Y-76549234D01*
X72934250Y-76543947D01*
X72931885Y-76539552D01*
X72930231Y-76536498D01*
X72929760Y-76535638D01*
X72928643Y-76533473D01*
X72926756Y-76529651D01*
X72924295Y-76524575D01*
X72921456Y-76518650D01*
X72918714Y-76512873D01*
X72900377Y-76471601D01*
X72884240Y-76430077D01*
X72870274Y-76388169D01*
X72858444Y-76345748D01*
X72848715Y-76302680D01*
X72841053Y-76258837D01*
X72835425Y-76214088D01*
X72832571Y-76180621D01*
X72832115Y-76172193D01*
X72831760Y-76161939D01*
X72831507Y-76150310D01*
X72831483Y-76148373D01*
X73024231Y-76148373D01*
X73025691Y-76168390D01*
X73029303Y-76187768D01*
X73035089Y-76206572D01*
X73043073Y-76224871D01*
X73053277Y-76242734D01*
X73057895Y-76249643D01*
X73061557Y-76254329D01*
X73066630Y-76260027D01*
X73072720Y-76266357D01*
X73079432Y-76272947D01*
X73086370Y-76279419D01*
X73093141Y-76285398D01*
X73099348Y-76290509D01*
X73104596Y-76294375D01*
X73105628Y-76295049D01*
X73123361Y-76304986D01*
X73141851Y-76312854D01*
X73160925Y-76318628D01*
X73180408Y-76322285D01*
X73200128Y-76323803D01*
X73219910Y-76323158D01*
X73239583Y-76320327D01*
X73258291Y-76315503D01*
X73275242Y-76309152D01*
X73279598Y-76307025D01*
X73292096Y-76300921D01*
X73303343Y-76294293D01*
X73307020Y-76291898D01*
X73310291Y-76289579D01*
X73313499Y-76287038D01*
X73316993Y-76283973D01*
X73321118Y-76280087D01*
X73326217Y-76275079D01*
X73330808Y-76270489D01*
X73336932Y-76264296D01*
X73341714Y-76259330D01*
X73345456Y-76255242D01*
X73348459Y-76251684D01*
X73351026Y-76248308D01*
X73353459Y-76244765D01*
X73354502Y-76243163D01*
X73364714Y-76225305D01*
X73372717Y-76206916D01*
X73378526Y-76187938D01*
X73382160Y-76168313D01*
X73383634Y-76147983D01*
X73383672Y-76143766D01*
X73382583Y-76123131D01*
X73379383Y-76103351D01*
X73377647Y-76097162D01*
X73585476Y-76097162D01*
X73586933Y-76117088D01*
X73590582Y-76136687D01*
X73596397Y-76155815D01*
X73604348Y-76174328D01*
X73614411Y-76192083D01*
X73615419Y-76193638D01*
X73624571Y-76206068D01*
X73635572Y-76218365D01*
X73648015Y-76230098D01*
X73656957Y-76237431D01*
X73672961Y-76248428D01*
X73689799Y-76257406D01*
X73707306Y-76264392D01*
X73725318Y-76269409D01*
X73743666Y-76272486D01*
X73762186Y-76273648D01*
X73780711Y-76272919D01*
X73799075Y-76270328D01*
X73817112Y-76265897D01*
X73834656Y-76259655D01*
X73851540Y-76251627D01*
X73867600Y-76241838D01*
X73882667Y-76230315D01*
X73896578Y-76217083D01*
X73909165Y-76202168D01*
X73912452Y-76197662D01*
X73923038Y-76180741D01*
X73931588Y-76162978D01*
X73938094Y-76144550D01*
X73942550Y-76125637D01*
X73944949Y-76106417D01*
X73945282Y-76087068D01*
X73944219Y-76075255D01*
X74109710Y-76075255D01*
X74110185Y-76094953D01*
X74112852Y-76114565D01*
X74117732Y-76133942D01*
X74119770Y-76140091D01*
X74127540Y-76158924D01*
X74137134Y-76176466D01*
X74148490Y-76192629D01*
X74161547Y-76207324D01*
X74174907Y-76219390D01*
X74191535Y-76231554D01*
X74208827Y-76241556D01*
X74226866Y-76249438D01*
X74245735Y-76255238D01*
X74251614Y-76256588D01*
X74271816Y-76259743D01*
X74291925Y-76260638D01*
X74311846Y-76259292D01*
X74331484Y-76255721D01*
X74350743Y-76249945D01*
X74369530Y-76241979D01*
X74387750Y-76231841D01*
X74388910Y-76231110D01*
X74392447Y-76228787D01*
X74395695Y-76226444D01*
X74398988Y-76223793D01*
X74402660Y-76220544D01*
X74407044Y-76216404D01*
X74412473Y-76211085D01*
X74416322Y-76207258D01*
X74422466Y-76201084D01*
X74427257Y-76196154D01*
X74430982Y-76192138D01*
X74433932Y-76188703D01*
X74436393Y-76185517D01*
X74438658Y-76182252D01*
X74440146Y-76179950D01*
X74450474Y-76161672D01*
X74458609Y-76142889D01*
X74464535Y-76123678D01*
X74468240Y-76104107D01*
X74469710Y-76084250D01*
X74468932Y-76064179D01*
X74465902Y-76044014D01*
X74460800Y-76024710D01*
X74453697Y-76006334D01*
X74444720Y-75989011D01*
X74433992Y-75972863D01*
X74421638Y-75958016D01*
X74407783Y-75944593D01*
X74392551Y-75932717D01*
X74376068Y-75922514D01*
X74358457Y-75914106D01*
X74339844Y-75907619D01*
X74325117Y-75904051D01*
X74304980Y-75901202D01*
X74284909Y-75900608D01*
X74265017Y-75902247D01*
X74245415Y-75906096D01*
X74226214Y-75912134D01*
X74207527Y-75920340D01*
X74189732Y-75930519D01*
X74185994Y-75933000D01*
X74182583Y-75935482D01*
X74179146Y-75938272D01*
X74175324Y-75941681D01*
X74170765Y-75946017D01*
X74165110Y-75951589D01*
X74162878Y-75953815D01*
X74156818Y-75959921D01*
X74152098Y-75964813D01*
X74148409Y-75968845D01*
X74145442Y-75972373D01*
X74142890Y-75975753D01*
X74140445Y-75979340D01*
X74139583Y-75980668D01*
X74129371Y-75998570D01*
X74121259Y-76017128D01*
X74115266Y-76036194D01*
X74111409Y-76055620D01*
X74109710Y-76075255D01*
X73944219Y-76075255D01*
X73943545Y-76067771D01*
X73939729Y-76048703D01*
X73933827Y-76030043D01*
X73925833Y-76011970D01*
X73920121Y-76001636D01*
X73909136Y-75985359D01*
X73896457Y-75970386D01*
X73882280Y-75956868D01*
X73866804Y-75944955D01*
X73850227Y-75934796D01*
X73832746Y-75926544D01*
X73814562Y-75920346D01*
X73812101Y-75919685D01*
X73797058Y-75916566D01*
X73780971Y-75914659D01*
X73764552Y-75913993D01*
X73748513Y-75914595D01*
X73733564Y-75916491D01*
X73732556Y-75916677D01*
X73712969Y-75921486D01*
X73694328Y-75928287D01*
X73676751Y-75936961D01*
X73660355Y-75947395D01*
X73645260Y-75959472D01*
X73631585Y-75973073D01*
X73619448Y-75988087D01*
X73608968Y-76004394D01*
X73600263Y-76021879D01*
X73593452Y-76040427D01*
X73589250Y-76056895D01*
X73586239Y-76077049D01*
X73585476Y-76097162D01*
X73377647Y-76097162D01*
X73374074Y-76084428D01*
X73366656Y-76066362D01*
X73357129Y-76049156D01*
X73345495Y-76032810D01*
X73336555Y-76022378D01*
X73322166Y-76008329D01*
X73306660Y-75996179D01*
X73290196Y-75985942D01*
X73272935Y-75977630D01*
X73255034Y-75971256D01*
X73236652Y-75966835D01*
X73217949Y-75964378D01*
X73199085Y-75963899D01*
X73180217Y-75965411D01*
X73161505Y-75968927D01*
X73143106Y-75974460D01*
X73125182Y-75982023D01*
X73107891Y-75991629D01*
X73092625Y-76002322D01*
X73085868Y-76008052D01*
X73078495Y-76015107D01*
X73071020Y-76022932D01*
X73063957Y-76030971D01*
X73057820Y-76038667D01*
X73053980Y-76044120D01*
X73043693Y-76061788D01*
X73035618Y-76079864D01*
X73029718Y-76098482D01*
X73025953Y-76117775D01*
X73024287Y-76137878D01*
X73024231Y-76148373D01*
X72831483Y-76148373D01*
X72831354Y-76137756D01*
X72831303Y-76124727D01*
X72831353Y-76111673D01*
X72831504Y-76099042D01*
X72831755Y-76087285D01*
X72832107Y-76076853D01*
X72832559Y-76068194D01*
X72832592Y-76067710D01*
X72836830Y-76021774D01*
X72843236Y-75976455D01*
X72851789Y-75931802D01*
X72862471Y-75887867D01*
X72875263Y-75844697D01*
X72883796Y-75820408D01*
X72890144Y-75802342D01*
X72907095Y-75760853D01*
X72926098Y-75720276D01*
X72947133Y-75680664D01*
X72970179Y-75642064D01*
X72995219Y-75604527D01*
X73022232Y-75568101D01*
X73035028Y-75552081D01*
X73057331Y-75525950D01*
X73081392Y-75499909D01*
X73095759Y-75485469D01*
X73679460Y-75485469D01*
X73680225Y-75505812D01*
X73683212Y-75525724D01*
X73688386Y-75545096D01*
X73695716Y-75563819D01*
X73705165Y-75581783D01*
X73711939Y-75592294D01*
X73717277Y-75599276D01*
X73724012Y-75606960D01*
X73731690Y-75614911D01*
X73739854Y-75622692D01*
X73748050Y-75629869D01*
X73755823Y-75636008D01*
X73762182Y-75640347D01*
X73778985Y-75649754D01*
X73795538Y-75657090D01*
X73812235Y-75662466D01*
X73829470Y-75665997D01*
X73847639Y-75667793D01*
X73859329Y-75668085D01*
X73876505Y-75667441D01*
X73877106Y-75667419D01*
X73893547Y-75665336D01*
X73909190Y-75661714D01*
X73924574Y-75656427D01*
X73939857Y-75649545D01*
X73957194Y-75639644D01*
X73973205Y-75627961D01*
X73987776Y-75614641D01*
X74000788Y-75599831D01*
X74012127Y-75583679D01*
X74021674Y-75566329D01*
X74029313Y-75547929D01*
X74034512Y-75530387D01*
X74037227Y-75515989D01*
X74038788Y-75500419D01*
X74039159Y-75484490D01*
X74038307Y-75469014D01*
X74037415Y-75461715D01*
X74033425Y-75442355D01*
X74027348Y-75423712D01*
X74019302Y-75405931D01*
X74009403Y-75389165D01*
X73997771Y-75373562D01*
X73984524Y-75359271D01*
X73969779Y-75346442D01*
X73953654Y-75335224D01*
X73936267Y-75325764D01*
X73926588Y-75321518D01*
X73912123Y-75316325D01*
X73897849Y-75312592D01*
X73883137Y-75310206D01*
X73867360Y-75309049D01*
X73858506Y-75308894D01*
X73838593Y-75309903D01*
X73819411Y-75312998D01*
X73800812Y-75318223D01*
X73782652Y-75325622D01*
X73764783Y-75335238D01*
X73759388Y-75338607D01*
X73753395Y-75342904D01*
X73746519Y-75348549D01*
X73739168Y-75355138D01*
X73731754Y-75362269D01*
X73724685Y-75369539D01*
X73718372Y-75376545D01*
X73713224Y-75382883D01*
X73710673Y-75386492D01*
X73700244Y-75404183D01*
X73692011Y-75421890D01*
X73685900Y-75439845D01*
X73681840Y-75458275D01*
X73679757Y-75477410D01*
X73679460Y-75485469D01*
X73095759Y-75485469D01*
X73106732Y-75474440D01*
X73120288Y-75461777D01*
X73132867Y-75450027D01*
X73159315Y-75427151D01*
X73163027Y-75424088D01*
X73194302Y-75399681D01*
X73227320Y-75376275D01*
X73261666Y-75354132D01*
X73296929Y-75333521D01*
X73331814Y-75315147D01*
X73372603Y-75296084D01*
X73414114Y-75279154D01*
X73456265Y-75264360D01*
X73498971Y-75251705D01*
X73542147Y-75241192D01*
X73585709Y-75232825D01*
X73600249Y-75230764D01*
X73629575Y-75226607D01*
X73673659Y-75222541D01*
X73717876Y-75220631D01*
X73762145Y-75220881D01*
G37*
D13*
%TO.C,C3*%
X82735000Y-100485580D02*
X82735000Y-100204420D01*
X83755000Y-100485580D02*
X83755000Y-100204420D01*
D14*
%TO.C,U1*%
X79315000Y-100670000D02*
X79315000Y-100770000D01*
X79315000Y-100670000D02*
X81515000Y-100670000D01*
X79315000Y-102870000D02*
X79315000Y-102770000D01*
X79315000Y-102870000D02*
X81515000Y-102870000D01*
X81515000Y-100670000D02*
X81515000Y-100770000D01*
X81515000Y-102870000D02*
X81515000Y-102770000D01*
D11*
X81900000Y-102970000D02*
G75*
G02*
X81750000Y-102970000I-75000J0D01*
G01*
X81750000Y-102970000D02*
G75*
G02*
X81900000Y-102970000I75000J0D01*
G01*
D14*
%TO.C,L1*%
X82395000Y-104320000D02*
X82395000Y-103220000D01*
X84495000Y-104320000D02*
X84495000Y-103220000D01*
D13*
%TO.C,C2*%
X82235580Y-105590000D02*
X81954420Y-105590000D01*
X82235580Y-106610000D02*
X81954420Y-106610000D01*
%TO.C,C1*%
X78753748Y-103345000D02*
X79276252Y-103345000D01*
X78753748Y-104815000D02*
X79276252Y-104815000D01*
%TO.C,J3*%
X46487500Y-88110000D02*
X55607500Y-88110000D01*
X46487500Y-121390000D02*
X46487500Y-88110000D01*
X55607500Y-88110000D02*
X55607500Y-121390000D01*
X55607500Y-102700000D02*
X46487500Y-102700000D01*
X55607500Y-106800000D02*
X46487500Y-106800000D01*
X55607500Y-121390000D02*
X46487500Y-121390000D01*
X61227500Y-116180000D02*
X62227500Y-116680000D01*
X62227500Y-115680000D02*
X61227500Y-116180000D01*
X62227500Y-116680000D02*
X62227500Y-115680000D01*
%TD*%
M02*
