M48
; DRILL file {KiCad 9.0.3} date 2025-08-09T18:19:07-0400
; FORMAT={-:-/ absolute / inch / decimal}
; #@! TF.CreationDate,2025-08-09T18:19:07-04:00
; #@! TF.GenerationSoftware,Kicad,Pcbnew,9.0.3
; #@! TF.FileFunction,Plated,1,2,PTH
FMAT,2
INCH
; #@! TA.AperFunction,Plated,PTH,ViaDrill
T1C0.0118
; #@! TA.AperFunction,Plated,PTH,ComponentDrill
T2C0.0118
; #@! TA.AperFunction,Plated,PTH,ComponentDrill
T3C0.0394
%
G90
G05
T1
X3.0179Y-3.9732
X3.1587Y-4.1766
X3.2075Y-4.098
X3.3128Y-4.1626
X3.3128Y-4.1921
X3.3167Y-3.9807
X3.3173Y-3.9207
X3.6177Y-5.0646
X3.6571Y-5.1815
X3.6571Y-5.215
X3.6571Y-5.2516
X3.6571Y-5.285
X3.6972Y-5.1811
X3.6972Y-5.2146
X3.6972Y-5.2512
X3.6972Y-5.2846
X3.7447Y-5.2512
X3.7447Y-5.2846
X3.7449Y-5.1813
X3.7449Y-5.2148
X3.847Y-4.8699
X3.8933Y-5.152
X3.8933Y-5.1856
X3.9327Y-5.152
X3.9327Y-5.1858
X3.972Y-5.152
X4.1687Y-5.2856
X4.2093Y-5.2852
X4.2484Y-5.2846
X4.287Y-5.2841
X4.3644Y-5.2837
T2
X3.1659Y-4.0067
T3
X2.2574Y-3.674
X2.2574Y-3.774
X2.2574Y-3.874
X2.2574Y-3.974
X2.2574Y-4.074
X2.2574Y-4.174
X2.2574Y-4.274
X2.2574Y-4.374
X2.2574Y-4.474
X2.2574Y-4.574
X2.3574Y-3.674
X2.3574Y-3.774
X2.3574Y-3.874
X2.3574Y-3.974
X2.3574Y-4.074
X2.3574Y-4.174
X2.3574Y-4.274
X2.3574Y-4.374
X2.3574Y-4.474
X2.3574Y-4.574
M30
